<svg width="151" height="45" viewBox="0 0 151 45" fill="none" xmlns="http://www.w3.org/2000/svg">
<g id="Group">
<path id="Vector" d="M147.51 35.9998C146.667 35.7908 145.553 35.6445 144.09 35.4913C141.749 35.2544 139.283 35.0524 136.72 34.934L136.727 34.9967C136.65 34.9688 136.595 34.9619 136.588 34.941V34.927C136.448 34.9201 136.511 35.0454 136.511 35.0454C136.511 35.0454 136.288 35.0036 136.246 34.9479C136.205 34.8922 136.135 34.9618 136.009 34.9549C135.884 34.941 135.884 34.9549 135.842 34.927C135.8 34.8992 135.675 34.9688 135.591 34.9758C135.515 34.9758 135.389 34.941 135.285 34.9619C135.362 34.941 135.466 34.8783 134.992 34.8643C120.371 34.3419 103.089 35.0663 89.0801 36.4526L89.0662 36.4595V36.4526C88.2581 36.5362 87.464 36.6128 86.6768 36.6964C86.6699 36.7939 86.4818 36.8357 86.4261 36.8218C86.3703 36.8078 86.3843 36.7242 86.1405 36.7451C85.9106 36.766 85.6807 36.7939 85.4508 36.8148C85.4578 36.8496 85.4648 36.8914 85.4648 36.9262C85.3603 36.9611 85.2697 36.9193 85.214 36.8427C84.4965 36.9193 83.786 36.9959 83.0964 37.0725C83.0964 37.0725 82.964 37.1422 82.8317 37.1143C82.6993 37.0865 82.7481 37.0865 82.6854 37.1283C82.6157 37.1701 82.5948 37.17 82.5112 37.184C82.4276 37.1979 82.3231 37.184 82.3231 37.184C82.3231 37.184 82.2047 37.2536 82.1629 37.2954C82.1211 37.3372 82.0654 37.17 81.5151 37.2327C72.2783 38.2776 65.8487 39.2529 63.6893 39.5524C63.6893 39.5524 63.4873 39.6081 63.4246 39.6081C63.355 39.6081 63.2783 39.6221 63.1947 39.629C63.1111 39.629 63.0972 39.6429 63.0624 39.6569C63.0206 39.6708 62.9927 39.7126 62.9161 39.7126C62.8325 39.7126 62.742 39.7265 62.742 39.7265C62.742 39.7265 62.6375 39.7823 62.5957 39.7823C62.5539 39.7823 62.5399 39.8659 62.5399 39.8659L62.3937 39.9076L62.2892 39.9634C62.2892 39.9634 62.1916 39.9355 62.0593 39.9982C61.3139 40.3395 61.0423 41.1755 61.0074 41.7954C61.0005 41.9069 61.293 41.9626 61.293 41.9626L61.307 42.0462L61.0841 42.1437C61.0841 42.1437 61.1468 42.1298 61.1468 42.2412C61.1468 42.3527 61.1259 42.2552 61.1468 42.3527C61.1676 42.4502 61.2234 42.5059 61.2373 42.5617C61.2512 42.6174 61.3 42.7706 61.3 42.7706C61.3 42.7706 61.4602 42.8821 61.4324 42.9239C61.4045 42.9657 61.3697 43.0353 61.3906 43.0771C61.4115 43.1189 61.4951 43.1329 61.509 43.1747C61.5229 43.2165 61.5438 43.3558 61.5438 43.3558L61.7598 43.6832C61.7598 43.6832 61.913 43.8573 62.0941 43.8364C62.1777 43.8225 62.2822 43.4951 62.4633 43.516C62.6444 43.5439 62.6793 43.4185 62.6793 43.4185L63.0763 43.3488C63.3619 42.9657 64.4138 42.9587 65.8348 42.6662C66.1065 42.6104 66.3503 42.5059 66.4269 42.5477C66.5105 42.5895 66.5871 42.5338 66.6289 42.5059C66.6707 42.4781 66.7474 42.4641 66.7474 42.4641C66.7474 42.4641 66.8797 42.492 66.9215 42.492C66.9633 42.492 66.9772 42.4223 67.0817 42.4223C67.1862 42.4223 67.2977 42.4154 67.3534 42.4014C67.4091 42.3875 67.4091 42.3736 67.6599 42.3248C67.9176 42.2761 68.4331 42.1158 68.4331 42.1158C68.4331 42.1158 69.0809 42.1019 69.1994 42.0462C69.3178 41.9905 69.4292 41.9974 69.4641 41.9835C69.5059 41.9696 69.5825 41.9278 69.68 41.9278C69.7775 41.9278 69.8124 41.8999 69.8959 41.872C69.9726 41.8442 70.1119 41.8442 70.1119 41.8442C70.1119 41.8442 70.2233 41.8999 70.286 41.8302C70.3487 41.7606 70.4045 41.7327 70.4463 41.7467C70.4881 41.7606 70.5786 41.8163 70.5786 41.8163C70.5786 41.8163 71.2752 41.7466 71.4911 41.6909C71.7071 41.6352 72.6336 41.475 72.6963 41.468C77.851 40.6321 84.6149 39.6917 92.7511 38.7722C93.2178 38.7165 93.2875 38.6329 93.3362 38.6259C93.385 38.6259 93.5592 38.6399 93.6288 38.6538C93.6985 38.6677 93.7681 38.6677 93.8866 38.6677C94.005 38.6677 94.0607 38.612 94.214 38.612C94.3672 38.612 94.5274 38.5702 94.611 38.5145C94.6946 38.4587 94.7016 38.5493 94.7852 38.5493C94.8688 38.5493 95.0638 38.5284 95.1335 38.5284C95.2031 38.5284 95.2519 38.3682 95.3564 38.4169C95.4609 38.4657 95.4957 38.4657 95.6002 38.4657C95.7047 38.4657 95.8927 38.4239 95.9833 38.4239C96.0669 38.4239 96.2271 38.3682 96.3107 38.403C96.3943 38.4378 96.45 38.4727 96.5684 38.4169C96.6869 38.3612 96.7705 38.2916 96.8262 38.2916C96.8749 38.2916 97.1048 38.4796 97.3625 38.3334C97.6203 38.1871 97.6203 38.2916 97.9477 38.2707C98.2751 38.2498 98.3796 38.208 98.6721 38.208C98.9647 38.201 99.3827 38.1592 99.3827 38.1592C99.3827 38.1592 99.5568 38.0826 99.6543 38.0269C99.7588 37.9711 99.7449 38.0617 99.7937 38.0756C99.8424 38.0896 99.9469 38.0199 99.9469 38.0199C99.9469 38.0199 99.9957 37.9851 100.051 38.0199C100.107 38.0547 100.239 37.9642 100.239 37.9642C100.239 37.9642 100.26 38.0895 100.33 38.0895C100.4 38.0895 100.448 38.0547 100.518 38.0478C100.588 38.0478 100.692 37.9572 100.741 37.992C100.797 38.0269 100.95 38.0269 100.95 38.0269C100.95 38.0269 101.055 37.9015 101.124 37.9154C101.194 37.9293 101.319 37.9851 101.403 37.9433C101.486 37.9084 101.626 37.8666 101.695 37.9015C101.765 37.9363 101.904 37.9711 101.974 37.8945C102.044 37.8248 102.148 37.8736 102.148 37.8736L102.357 37.8875C102.357 37.8875 102.476 37.8109 102.65 37.8318C102.824 37.8457 102.824 37.79 102.942 37.79C103.061 37.79 103.339 37.7482 103.388 37.7482C103.437 37.7482 103.527 37.6716 103.646 37.7064C103.771 37.7412 103.959 37.6646 104.064 37.6995C104.168 37.7343 104.119 37.7552 104.356 37.6786C104.6 37.6019 104.649 37.5323 104.732 37.581C104.823 37.6298 104.837 37.6298 104.99 37.6298C105.143 37.6298 105.234 37.6089 105.339 37.6089C105.443 37.6089 105.443 37.6437 105.596 37.5671C105.75 37.4905 105.784 37.4556 105.854 37.4905C105.924 37.5253 106.007 37.5392 106.112 37.5253C106.216 37.5044 106.265 37.4905 106.39 37.5044C106.509 37.5183 107.359 37.386 107.616 37.3651C122.071 36.2436 132.687 36.3759 139.667 36.8287C140.196 36.8635 140.266 36.8217 140.37 36.8148C140.482 36.8148 140.509 36.8984 140.593 36.8984C140.677 36.8984 140.802 36.8635 140.886 36.8914C140.969 36.9193 141.15 36.9889 141.248 36.982C141.345 36.982 141.596 36.9332 141.666 36.9471C141.735 36.9611 141.805 36.8426 141.986 36.8914C142.167 36.9471 142.195 36.8914 142.376 36.9402C142.557 36.9959 142.655 36.9611 142.808 36.9889C142.961 37.0168 142.92 37.0307 143.059 37.0098C143.198 36.9959 143.226 36.9193 143.268 36.9889C143.31 37.0586 143.407 37.0865 143.477 37.0586C143.547 37.0307 143.63 37.0307 143.63 37.0307C143.63 37.0307 143.658 37.0307 143.811 37.0307C143.965 37.0307 143.881 37.0586 144.187 37.0795C144.494 37.1004 145.177 37.177 145.497 37.184C145.817 37.1909 145.887 37.1352 146.026 37.2467C146.166 37.3581 146.277 37.3442 146.277 37.3442L146.375 37.3024H146.458C146.458 37.3024 146.5 37.2745 146.556 37.3024C146.612 37.3303 146.695 37.3442 146.765 37.3442C146.834 37.3442 146.946 37.3094 147.016 37.3372C147.085 37.3651 147.197 37.4069 147.28 37.4069C147.364 37.4069 147.531 37.4278 147.601 37.4556C147.67 37.4835 147.643 37.5114 147.865 37.4905C148.088 37.4696 148.102 37.4556 148.186 37.5253C148.269 37.595 148.409 37.6089 148.534 37.6019C148.66 37.6019 149.064 37.7552 149.328 37.9224C149.509 38.0338 149.495 38.1871 149.565 38.0756C149.607 38.0408 150.958 36.8496 147.51 35.9998Z" fill="#01432B"/>
<path id="Vector_2" d="M137.069 20.6122L137.02 20.7445L136.971 20.8908C136.964 20.9187 136.957 20.9465 136.95 20.9814V21.0301C136.915 21.065 136.867 21.0928 136.839 21.1555C136.804 21.2252 136.776 21.3018 136.741 21.3854L136.685 21.3784C136.581 21.3575 136.476 21.3297 136.379 21.3018L136.226 21.253C136.177 21.2391 136.212 21.2461 136.114 21.1625L136.1 21.1486L136.079 21.1416C135.87 21.0928 135.668 21.0859 135.522 20.9744L135.334 20.9187L135.167 20.856C134.895 20.7306 134.819 20.7027 134.561 20.5564C134.47 20.5077 134.449 20.4729 134.31 20.4102L134.059 20.3335L133.934 20.2917L133.899 20.2778L133.843 20.236L133.62 20.0061C133.035 19.6161 132.861 19.4907 132.694 19.3792C132.666 19.3583 132.562 19.2956 132.562 19.2678C132.562 19.2329 132.541 19.212 132.506 19.1842C132.471 19.1563 132.422 19.1284 132.422 19.1145L132.346 19.1075C132.346 19.1075 132.297 19.0448 132.311 19.01C132.325 18.9682 132.297 18.9682 132.262 18.9473C132.227 18.9264 132.179 18.8846 132.179 18.8846C132.179 18.8846 132.095 18.808 132.025 18.7523C131.956 18.6965 131.907 18.6269 131.858 18.5642L131.754 18.4388C131.684 18.3552 131.614 18.2716 131.538 18.195C131.503 18.1602 131.426 18.1044 131.419 18.0975C131.384 18.0626 131.357 18.0209 131.329 17.986C131.301 17.9442 131.294 17.9233 131.28 17.8746C131.266 17.8188 131.238 17.7562 131.21 17.7074C131.05 17.5193 130.953 17.38 130.848 17.1919L130.841 17.2058C130.876 16.9133 130.869 16.76 130.855 16.4535L130.82 16.1331C130.785 15.8614 130.723 15.6455 130.618 15.4853C130.535 15.2484 130.423 15.0255 130.284 14.8374V14.8305C130.228 14.7538 130.165 14.6842 130.11 14.6145L130.061 14.5588L130.054 14.5518L129.998 14.4961C129.058 13.5766 128.096 14.1896 128.096 14.1896C128.096 14.1896 127.811 14.2802 127.741 14.4682C127.644 14.719 127.504 14.7399 127.504 14.7399C127.504 14.7399 127.414 15.2624 127.295 15.2624C127.177 15.2624 127.268 15.5967 127.268 15.5967L127.1 15.9659L127.128 16.3351C127.128 16.3351 126.996 16.6555 127.142 17.2407L127.121 17.2825C127.045 17.4427 126.926 17.7004 126.926 17.7492L126.912 17.777H126.933L126.898 17.8188L126.877 17.9303L126.822 18L126.766 18.1044C126.731 18.1602 126.738 18.2089 126.703 18.2507L126.682 18.2856L126.662 18.3204C126.627 18.5642 126.543 18.6896 126.39 18.8637C126.32 18.9613 126.271 19.0448 126.216 19.226C126.188 19.3095 126.188 19.3862 126.209 19.4419L126.16 19.4767C126.076 19.6091 126.118 19.6369 126.035 19.7623L126.055 19.7972L126.028 19.839C125.965 19.9574 125.93 20.1246 125.895 20.236C125.853 20.3684 125.791 20.452 125.728 20.6191L125.693 20.6958C125.693 20.7167 125.672 20.7306 125.672 20.7724V20.7863C125.631 20.8421 125.589 20.8908 125.54 20.9465C125.47 21.0301 125.554 21.0092 125.498 21.0928L125.436 21.2461L125.422 21.3854C125.401 21.4272 125.373 21.462 125.352 21.5108L125.261 21.7058C125.227 21.7825 125.233 21.7546 125.227 21.7755L125.206 21.7824L125.199 21.8034L125.15 21.8173L125.108 21.9009C125.059 21.9984 125.031 22.0402 124.997 22.1238H124.927L124.871 22.1934C124.781 22.4164 124.69 22.6323 124.558 22.7995L124.516 22.7855C124.377 23.1338 124.168 23.4612 123.966 23.7956L123.826 24.0324L123.722 24.13C123.708 24.1439 123.68 24.1578 123.652 24.1996L123.61 24.2762C123.597 24.3111 123.59 24.2971 123.569 24.3807V24.3947L123.576 24.4225L123.541 24.4365L123.499 24.4922V24.534C123.52 24.534 123.436 24.6245 123.374 24.7151L123.332 24.736L123.29 24.7708L123.234 24.8335L123.186 24.8892C123.186 24.9032 123.137 24.8892 123.179 24.945L123.13 24.9519C123.039 25.1261 122.942 25.2445 122.851 25.4256C122.754 25.4744 122.642 25.6067 122.566 25.7043L122.552 25.7252L122.545 25.7391L122.538 25.7461L122.531 25.76L122.524 25.7669L122.517 25.7809L122.503 25.7878V25.8018L122.489 25.8088L122.496 25.8227L122.489 25.8297L122.496 25.8436H122.482V25.8505L122.384 25.9481C122.398 25.9481 122.308 25.955 122.259 25.9759C122.203 25.9968 122.155 25.9968 122.113 26.0386L122.05 26.0526C121.841 26.2685 121.702 26.4775 121.5 26.6516L121.479 26.6586C121.423 26.6377 121.423 26.6307 121.423 26.6447L121.374 26.777L121.333 26.8258L121.284 26.8815L121.249 26.9163L121.242 26.9233C120.58 27.4806 119.675 27.5642 119.466 27.2646L119.403 27.2437L119.382 27.2298C119.319 27.188 119.264 27.0208 119.215 26.9581V26.9512L119.09 26.8885L119.097 26.6656C119.069 26.6029 119.069 26.4984 119.034 26.4914C119.027 26.4496 119.02 26.4078 119.02 26.3869C119.006 26.366 118.992 26.3242 118.985 26.2894C119.013 26.2685 118.957 26.157 118.957 26.0874L118.936 25.962C118.915 25.9132 118.943 25.9063 118.901 25.8366C118.888 25.7879 118.881 25.7321 118.881 25.6764V25.6207H118.929L118.922 25.5023H118.943C118.943 25.4605 118.929 25.4117 118.922 25.3699H118.95C118.95 25.0564 118.936 24.7708 118.999 24.5131L118.992 24.4643L118.985 24.4156C118.978 24.3459 119.041 24.2414 119.02 24.1369C119.02 24.0951 119.02 24.0533 119.02 24.0185C119.062 23.9349 119.124 23.7259 119.083 23.6424C119.083 23.6006 119.097 23.5448 119.103 23.4891L119.187 23.503C119.222 23.3289 119.194 23.1756 119.194 23.0224C119.194 22.9458 119.194 22.8691 119.194 22.7995L119.201 22.702C119.208 22.6671 119.201 22.702 119.257 22.6393L119.271 22.6253V22.5975C119.257 22.4512 119.229 22.3188 119.278 22.2492L119.375 22.1098H119.271C119.473 21.1694 119.633 20.7027 119.814 20.2012C121.193 16.3978 118.288 16.3699 117.71 16.3281C117.271 16.3003 117.174 16.6346 116.874 17.6029C114.116 25.0982 111.963 26.5959 110.87 27.0069C110.34 27.2019 109.95 27.2437 109.727 27.188C108.891 26.979 109.031 26.2197 109.1 25.8018H109.114L109.128 25.7043C109.135 25.6416 109.1 25.5371 109.08 25.4326V25.4117V25.3769C109.086 25.342 109.093 25.3072 109.1 25.2654L109.156 25.3072L109.24 25.356L109.233 25.2445L109.226 25.0216H109.233L109.247 24.9937L109.254 24.9798H109.247L109.226 24.938H109.295C109.254 24.5688 109.588 24.325 109.63 23.9488L109.581 23.9279L109.595 23.9001C109.665 23.7956 109.686 23.6911 109.727 23.5866C109.748 23.4961 109.755 23.4194 109.755 23.3428C109.95 22.7507 110.013 22.6044 110.187 21.9914C110.431 21.3854 110.612 20.7376 110.786 20.0758C110.842 19.9504 110.87 19.8111 110.891 19.6787L110.905 19.623C110.932 19.5116 110.967 19.4001 110.995 19.2887C111.009 19.2678 111.023 19.2469 111.065 19.2329H111.072V19.212C111.086 19.1215 111.093 19.0379 111.114 18.9613C111.128 18.9195 111.134 18.8707 111.169 18.8428L111.232 18.7871L111.148 18.7732C111.218 18.613 111.274 18.4527 111.343 18.2925C111.371 18.195 111.441 18.1462 111.455 18.0139C111.462 17.9233 111.448 17.791 111.469 17.7283C111.622 17.4496 111.643 17.0944 111.538 16.7531C111.518 16.7043 111.504 16.6625 111.483 16.6137C111.462 16.565 111.483 16.5301 111.483 16.5162L111.448 16.4675V16.4048L111.413 16.3699L111.42 16.3072C111.42 16.2863 111.406 16.2863 111.392 16.2376C111.378 16.1888 111.392 16.2376 111.392 16.2167L111.357 16.1819C111.35 16.1679 111.35 16.1401 111.323 16.0983C111.246 15.9798 111.162 15.8753 111.079 15.7987C111.037 15.7569 110.988 15.7221 110.932 15.6942C110.863 15.6664 110.835 15.6733 110.793 15.6385C110.71 15.6037 110.668 15.4644 110.535 15.4226L110.229 15.325C110.027 15.2624 109.602 15.2136 109.4 15.1648C109.212 15.137 108.648 15.0812 108.46 15.1648C108.23 15.1648 108.195 15.2554 108.16 15.2763L108.167 15.3668C108.237 15.6037 108.202 15.8196 108.181 16.154L108.167 16.1261C108.167 16.3908 108.104 16.6207 108.007 16.8645C107.993 16.962 107.979 17.0596 107.965 17.164C107.909 17.3661 107.847 17.5681 107.791 17.7701C107.749 17.777 107.833 17.7979 107.812 17.8049L107.819 17.8676L107.763 17.9024L107.756 17.9791C107.756 18.0069 107.735 18.0139 107.707 18.0626C107.652 18.2438 107.596 18.4318 107.547 18.613C107.533 18.6687 107.512 18.7244 107.498 18.7801C107.484 18.815 107.47 18.8498 107.463 18.8846L107.38 19.3444C107.324 19.4349 106.955 20.5982 106.927 20.7027C105.966 24.2554 103.653 30.4202 109.17 30.3575C110.306 30.3436 111.281 29.7933 111.991 29.2569L111.998 29.2638C112.075 29.2011 112.124 29.1594 112.165 29.1315L112.186 29.1176C112.228 29.0897 112.263 29.0688 112.312 29.0409V29.0549L112.326 29.02L112.333 29.034C112.381 29.034 112.395 28.9782 112.437 28.9643L112.451 28.9852C112.458 28.9364 112.521 28.9991 112.486 28.9295L112.5 28.9504C112.556 28.8877 112.625 28.8389 112.702 28.7902C112.709 28.7135 112.758 28.6857 112.785 28.6299C112.869 28.5603 112.953 28.4837 113.036 28.407C113.036 28.3583 113.064 28.3722 113.078 28.3652L113.141 28.3095C113.189 28.2677 113.238 28.219 113.287 28.1702C113.343 28.205 113.287 28.1214 113.336 28.1423C113.315 28.1075 113.35 28.1214 113.357 28.1075L113.371 28.1005L113.384 28.1145L113.482 28.0448C113.468 28.003 113.496 27.9961 113.503 27.9752L113.586 27.8916L113.621 27.8707L113.635 27.8776L113.642 27.8498L113.649 27.8567C113.698 27.8567 113.705 27.801 113.74 27.7871L113.754 27.808C113.754 27.7592 113.788 27.808 113.782 27.7592L113.795 27.7731L113.851 27.7104C113.879 27.6756 113.907 27.6338 113.942 27.606C113.928 27.5363 113.97 27.5084 113.991 27.4666C114.025 27.4318 114.06 27.397 114.088 27.3552V27.3482C114.213 27.2159 114.186 27.2646 114.311 27.1253L114.318 27.1323L114.339 27.1114L114.36 27.0905L114.374 27.0974C114.569 26.8118 115.412 25.5231 115.885 24.6803C115.85 25.8645 115.739 27.4875 116.422 28.5115L116.463 28.5185C116.477 28.6996 116.596 28.818 116.742 28.9364C116.888 29.0618 117 29.3474 117.306 29.4171C117.515 29.4659 117.682 29.6261 117.905 29.6818C117.94 29.7027 117.982 29.7166 118.038 29.7236L118.121 29.7306C118.156 29.7445 118.205 29.7375 118.261 29.7375C118.316 29.7375 118.323 29.7654 118.372 29.7654C118.421 29.7654 118.47 29.7445 118.484 29.7654C118.497 29.7933 118.532 29.8281 118.56 29.8002C118.595 29.7793 118.72 29.7654 118.755 29.7654C119.849 29.7306 122.705 29.3474 125.547 24.6942L125.54 24.7151C125.505 24.8335 125.526 24.8683 125.519 24.931L125.491 25.2306L125.484 25.2375L125.345 25.4605L125.359 25.5092L125.373 25.5231C125.22 26.2824 124.948 27.1323 125.066 28.1005C125.115 28.5324 125.157 28.9782 125.387 29.3892C125.415 29.5564 125.533 29.7306 125.651 29.8838L125.686 29.8351C125.665 30.0092 125.833 30.0231 125.937 30.0719L126.021 30.1555C126.028 30.1833 126.028 30.2112 126.021 30.246H126C126.007 30.3296 126.09 30.3018 126.167 30.2739C126.285 30.3575 126.411 30.4202 126.522 30.4689L126.55 30.4759L126.627 30.5038C126.808 30.5804 127.059 30.5456 127.212 30.4898C127.372 30.4341 127.386 30.3227 127.546 30.3018C127.706 30.2809 127.922 29.9535 127.922 29.8211C127.922 29.5564 127.992 29.7724 127.79 29.3405C127.268 28.3165 128.786 23.8444 129.852 20.6818C131.433 22.2352 133.976 23.4612 136.212 23.8653V23.8792L136.205 23.9488V23.9698L136.198 24.0603C136.191 24.1021 136.184 24.1509 136.184 24.1996C136.086 25.0355 136.142 25.8366 136.358 26.568V26.575C136.483 27.2159 136.748 27.8916 137.229 28.421L137.278 28.4767C137.382 28.7205 137.577 28.7693 137.8 28.8946C137.891 28.9504 137.974 28.9922 138.051 29.0479L138.141 29.1176C138.211 29.1733 138.267 29.229 138.295 29.3056L138.399 29.3335C138.49 29.4659 138.497 29.431 138.65 29.431C138.963 29.5982 139.298 29.7375 139.653 29.8281C139.716 29.842 139.778 29.8559 139.841 29.8699C139.89 29.8838 139.946 29.8908 139.994 29.9047C140.036 29.9117 140.036 29.8699 140.064 29.9047L140.154 29.9326L140.189 29.9465C140.203 29.9674 140.21 30.0022 140.245 29.9535C140.287 29.9117 140.273 29.8908 140.308 29.9047C140.343 29.9186 140.329 29.9604 140.377 29.9604C140.433 29.9535 140.447 29.9186 140.475 29.9535C140.503 29.9953 140.51 29.9604 140.545 29.9674C140.579 29.9744 140.621 30.0092 140.635 30.0231C140.649 30.0371 140.649 29.9883 140.726 29.9883C140.774 29.9883 140.83 29.9953 140.879 29.9953C142.558 30.0162 144.863 29.5912 147.002 28.2607C147.044 28.2468 147.058 28.2538 147.093 28.219L147.127 28.1981L147.148 28.1702C147.197 28.1423 147.239 28.1005 147.281 28.0727L147.288 28.0657L147.315 28.0518L147.329 28.0448L147.35 28.0239L147.371 27.9612L147.406 27.9403C147.469 27.9473 147.476 27.8985 147.511 27.8498L147.552 27.8219L147.559 27.8289L147.566 27.8149C147.692 27.7244 147.824 27.6617 147.942 27.5572L147.97 27.5224L147.984 27.5154L147.998 27.5015H148.012L148.033 27.4806C148.151 27.39 148.249 27.2995 148.367 27.2019L148.395 27.188C148.402 27.1462 148.423 27.181 148.437 27.1392L148.444 27.1323H148.451L148.507 27.0696C148.583 27.0069 148.66 26.9442 148.736 26.8745L148.862 26.777L148.911 26.7561C149.015 26.6795 148.959 26.7422 149.05 26.6377L149.12 26.5541C149.175 26.5053 149.217 26.4426 149.252 26.38L149.315 26.3033C149.37 26.2406 149.419 26.171 149.482 26.1222C149.635 25.9899 149.733 25.8714 149.767 25.8436C149.802 25.8157 149.844 25.7809 149.872 25.7461C149.9 25.7112 149.935 25.6903 149.962 25.6834L150.046 25.5858C150.046 25.5858 150.081 25.4744 150.13 25.4256C150.178 25.3838 150.192 25.3002 150.213 25.2654C150.234 25.2306 150.185 25.2933 150.234 25.2306C150.283 25.1679 150.38 25.1331 150.408 25.0773C150.436 25.0216 150.485 24.938 150.534 24.8892C150.582 24.8475 150.596 24.7499 150.631 24.6942C150.666 24.6385 151.202 23.5309 150.917 22.9527V22.9458L150.924 22.6811C150.91 22.3258 150.582 21.9148 150.478 22.2004C150.415 22.3537 150.227 22.6044 150.199 22.6462V22.6323C150.095 22.6741 150.171 22.7577 150.067 22.7855C150.095 22.8273 149.963 22.904 149.976 22.9806L149.949 22.9667C149.844 23.0851 149.733 23.2174 149.642 23.315C149.6 23.4334 149.433 23.4961 149.412 23.6075C149.343 23.6563 149.231 23.7956 149.168 23.8931V23.8792C149.085 23.9697 149.029 23.9906 148.987 24.0812L148.966 24.1509C148.932 24.1578 148.904 24.1927 148.918 24.1857H148.904L148.876 24.1996L148.813 24.2414C148.771 24.318 148.653 24.3668 148.576 24.4852L148.507 24.5479L148.395 24.7151C148.395 24.7151 148.381 24.743 148.381 24.7778C148.339 24.8196 148.291 24.8614 148.249 24.8962L148.144 24.9798L148.082 25.0425C148.068 25.0913 148.068 25.0913 148.061 25.0982C148.026 25.1261 147.935 25.1888 147.873 25.2097L147.664 25.3838L147.601 25.4117L147.504 25.4744L147.469 25.5301L147.476 25.5649L147.378 25.6555L147.267 25.7669L147.232 25.8018L147.197 25.8157L147.148 25.8645L147.079 25.9063L147.002 25.969C146.967 25.9829 146.953 26.0177 146.904 26.0665C146.779 26.1849 146.605 26.2267 146.473 26.2894C146.417 26.3173 146.396 26.3242 146.382 26.3382L146.326 26.3591L146.278 26.4148L146.25 26.4357L146.201 26.4705L146.187 26.5123H146.145L146.103 26.5611L146.02 26.5471C145.762 26.7213 145.588 26.8258 145.414 26.8954C145.337 26.9303 145.288 27.0069 145.254 26.9999C145.219 26.9999 145.205 26.993 145.198 26.993L145.191 27.0626L145.121 27.0348L145.093 27.0696L145.038 27.0765L144.947 27.0974L144.85 27.0905C144.822 27.0696 144.822 27.1044 144.808 27.1532C144.794 27.2019 144.745 27.1532 144.731 27.1323H144.661L144.599 27.1462L144.529 27.1601L144.473 27.2159C144.473 27.195 144.418 27.2159 144.341 27.2228C144.146 27.2437 143.993 27.2994 143.839 27.3552C143.561 27.4597 143.435 27.3691 143.373 27.3761C143.254 27.39 143.115 27.4109 143.017 27.4109L142.976 27.4527L142.927 27.4248C142.913 27.4039 142.871 27.4039 142.878 27.4806C142.885 27.5293 142.85 27.4875 142.836 27.4666L142.795 27.4597H142.718H142.669L142.613 27.4527L142.565 27.4388C142.537 27.4457 142.537 27.4388 142.502 27.4318C142.335 27.4179 142.168 27.4179 141.987 27.397C141.903 27.39 141.687 27.3204 141.666 27.3204L141.569 27.2925L141.52 27.2786L141.471 27.2646L141.436 27.2368L141.394 27.2159L141.325 27.195L141.255 27.1532C141.053 27.0835 140.907 27.0417 140.754 26.9442V26.9372C140.698 26.9094 140.635 26.8676 140.572 26.8258L140.468 26.7561L140.398 26.7143L140.363 26.7004C140.336 26.6516 140.308 26.6098 140.273 26.5541L140.168 26.4844L140.113 26.4009C140.036 26.2824 139.966 26.1501 139.918 26.0108C139.841 25.76 139.764 25.5023 139.688 25.2306L139.646 25.2236L139.618 25.1331C139.618 24.945 139.625 24.7569 139.639 24.5688C139.646 24.4713 139.653 24.3738 139.674 24.2762L139.702 24.0742C139.709 24.0464 139.709 24.0046 139.75 24.0115H139.799L139.897 24.0046C140.294 23.9628 140.691 23.9001 141.081 23.8165C142.634 23.4821 144.306 22.7786 145.302 22.0889L145.344 22.0611L145.365 22.068L145.386 22.0541L145.414 22.0472C145.699 21.9009 146.911 21.1416 147.504 20.4868L147.517 20.5077C148.096 19.9226 149.545 18.2368 149.642 16.6416C149.642 16.5998 149.677 16.5719 149.691 16.5301C149.747 16.3769 149.628 16.3351 149.663 16.1958L149.747 16.0007L149.705 15.8614C149.726 15.7151 149.74 15.5619 149.719 15.4017L149.705 15.1927L149.698 15.1439C149.698 15.1439 149.705 15.13 149.726 15.0882C149.74 15.0255 149.733 14.9907 149.733 14.9489C149.726 14.8723 149.705 14.8096 149.691 14.7469C149.663 14.6424 149.565 14.524 149.524 14.4055L149.572 14.3289L149.552 14.2662C149.496 14.0851 149.419 13.8692 149.28 13.6811C149.161 13.5139 149.008 13.3746 148.855 13.2353L148.869 13.1865C148.36 12.873 147.747 12.7059 147.148 12.678C146.995 12.671 146.849 12.671 146.695 12.685L146.584 12.6919L146.493 12.685L146.271 12.6641C146.145 12.671 146.117 12.6919 146.034 12.7128L146.006 12.7198L145.985 12.7268L145.964 12.7337L145.88 12.7686C145.825 12.7546 145.832 12.7755 145.804 12.7686H145.762L145.734 12.7895C145.671 12.8382 145.49 12.8591 145.337 12.9009L145.309 12.8939H145.254L145.184 12.9009L145.065 12.9288L144.961 12.9566L144.926 12.9636L144.898 12.9915L144.843 12.9984C144.613 13.096 144.466 13.1308 144.271 13.2353C144.041 13.3885 143.993 13.3885 143.582 13.5766C143.686 13.5278 143.505 13.6254 143.477 13.6254L143.449 13.6811L143.387 13.702L143.338 13.7368L143.247 13.7856C143.219 13.7856 143.226 13.8343 143.164 13.8622H143.15H143.108L143.045 13.8761L142.934 13.904C142.857 13.9249 142.788 13.9458 142.711 13.9667C142.579 14.0642 142.481 14.1408 142.377 14.2314C142.209 14.3428 142.035 14.5031 141.847 14.6633L141.778 14.6354L141.687 14.712C141.666 14.7399 141.624 14.7887 141.582 14.8374L141.499 14.8653L141.464 14.9489L141.415 14.9768C141.38 15.0046 141.353 14.9907 141.318 15.0185H141.29L141.262 14.9698L141.13 15.0673L140.963 15.2345L140.949 15.2484L140.935 15.2554L140.886 15.2902L140.844 15.3181L140.837 15.325L140.851 15.3599L140.83 15.3877L140.788 15.3738C140.684 15.5131 140.552 15.6246 140.377 15.7848C140.203 15.9381 139.98 16.1331 139.778 16.3978L139.82 16.4396L139.813 16.4466C139.674 16.5232 139.569 16.6486 139.472 16.7531C139.256 16.9969 139.179 17.2755 138.998 17.5054L138.963 17.5193L138.915 17.5611L138.852 17.6308L138.74 17.7631C138.678 17.8467 138.587 17.9442 138.545 18.0069L138.497 18.0626L138.455 18.1253C138.413 18.202 138.343 18.3274 138.281 18.4249L138.183 18.5851L138.134 18.6687C138.12 18.7035 138.107 18.7035 138.1 18.7592C138.065 18.8289 138.023 18.8986 137.981 18.9613L137.939 19.0239L137.898 18.9961L137.856 19.0588L137.8 19.1354L137.786 19.1215C137.758 19.1633 137.723 19.2329 137.709 19.2887L137.682 19.2747C137.452 19.6927 137.305 20.1455 137.243 20.1733C137.208 20.243 137.173 20.3057 137.124 20.3753L137.166 20.445C137.11 20.5216 137.069 20.6191 137.069 20.6122ZM140.621 20.4241C140.74 20.1037 141.123 19.6021 141.297 19.2538C141.346 19.1842 141.394 19.1145 141.443 19.0448C141.485 18.9891 141.52 18.9334 141.569 18.8846C141.743 18.8289 141.812 18.6408 141.882 18.4597C142 18.3134 142.119 18.1671 142.244 18.0209C142.774 17.8119 143.045 17.3939 143.317 16.9272C143.986 16.3281 144.668 15.8405 145.288 15.541C145.449 15.534 145.504 15.5271 145.623 15.4574L145.706 15.4295C145.832 15.4226 145.832 15.4086 145.887 15.3599L145.929 15.3459C145.95 15.3529 145.978 15.2972 146.006 15.332L146.062 15.2972C146.103 15.3111 146.096 15.3042 146.138 15.2624C146.201 15.1997 146.222 15.2345 146.298 15.2275H146.326L146.396 15.2206C146.577 15.2066 146.737 15.1997 146.828 15.2275L146.849 15.2484L146.863 15.2414C147.002 15.2763 147.183 15.3041 147.315 15.4644C147.462 15.6733 147.615 15.9102 147.469 16.5162L147.462 16.565L147.448 16.6207V16.6416L147.441 16.6486V16.6764L147.42 16.7322L147.413 16.767L147.399 16.774L147.385 16.8018C147.246 17.2964 147.023 17.8676 146.493 18.4388L146.48 18.4667L146.466 18.4945L146.452 18.5085L146.438 18.5224L146.431 18.5294L146.438 18.5572H146.417L146.41 18.5712H146.403L146.389 18.5851L146.347 18.606L146.319 18.7105V18.7174L146.326 18.7801L146.284 18.815L146.298 18.7662L146.18 18.7801C146.131 18.7871 146.117 18.808 146.096 18.8289L146.055 18.8846L145.992 18.9404L145.957 18.9682L145.929 18.9891L145.915 19.01V19.0239H145.901L145.887 19.0379L145.874 19.0727L145.853 19.0797L145.839 19.1006L145.811 19.0936L145.79 19.1145L145.762 19.1424L145.734 19.1702C145.72 19.2051 145.727 19.1842 145.692 19.226L145.671 19.2469L145.63 19.2747L145.602 19.2887L145.581 19.3096L145.574 19.3235L145.56 19.3374L145.539 19.3513H145.518L145.504 19.3653L145.476 19.3792C145.428 19.4071 145.435 19.421 145.407 19.428L145.337 19.4698L145.33 19.4837L145.254 19.5046L145.212 19.5603C145.128 19.5743 145.052 19.616 145.017 19.6857V19.7205L145.031 19.7345L145.052 19.7414V19.7554L145.045 19.7693C145.031 19.7763 145.024 19.7763 144.968 19.7345C144.912 19.7484 144.843 19.8181 144.822 19.839L144.773 19.9016L144.766 19.9295L144.717 19.9504C144.682 19.9017 144.689 19.9434 144.661 19.9365L144.585 19.9852L144.578 20.0131L144.592 20.0201V20.041L144.585 20.0619L144.55 20.0688L144.536 20.0758H144.515L144.501 20.0688H144.466H144.445L144.432 20.0619L144.376 20.0549C144.32 20.0479 144.243 20.0828 144.216 20.1315C144.202 20.1664 144.195 20.1942 144.125 20.2012C144.125 20.236 144.076 20.2221 144.09 20.2639L144.048 20.2848L144.034 20.2917L144.041 20.3196L144.069 20.3335V20.3544L144.083 20.3753C144.041 20.3823 144.055 20.3893 144.041 20.4102L144.021 20.4241L144 20.4171L143.993 20.3962L144.007 20.3893H143.986L143.972 20.4032L143.965 20.3962L143.958 20.4032L143.867 20.4311L143.846 20.5077L143.853 20.5216L143.777 20.5286H143.693H143.679H143.672L143.637 20.5495L143.624 20.5564V20.5773H143.61L143.603 20.5913L143.589 20.6052L143.575 20.6191L143.554 20.6331L143.533 20.647C143.491 20.6888 143.442 20.7167 143.408 20.7585L143.373 20.7654L143.338 20.7585H143.324L143.303 20.7445L143.261 20.7724L143.254 20.7794H143.247L143.24 20.8072L143.143 20.8421H143.122L143.108 20.856L143.087 20.849L143.059 20.8629C142.99 20.8769 142.955 20.8978 142.906 20.8838L142.843 20.8908L142.767 20.9187C142.69 20.9465 142.586 20.9674 142.579 20.9814L142.544 20.9883H142.502L142.446 21.0092L142.377 21.0162C142.356 21.0232 142.335 21.0371 142.293 21.0371H142.286L142.23 21.065C142.195 21.0859 142.14 21.0859 142.091 21.0928H142.084L142.077 21.0998L142.049 21.1277L142.035 21.1486H142.007L141.952 21.1346L141.833 21.1973L141.666 21.2461C141.38 21.3366 140.747 21.4969 140.196 21.5526C140.238 21.1625 140.44 20.8908 140.621 20.4241ZM139.611 25.2933V25.2793L139.625 25.2933H139.611Z" fill="#01432B"/>
<path id="Vector_3" d="M62.0243 25.76C61.9895 25.8784 62.0034 25.9132 61.9964 25.9759L61.9546 26.2685L61.9477 26.2754L61.7944 26.4914L61.8083 26.5401L61.8223 26.561C61.6342 27.3133 61.3277 28.1562 61.4183 29.1245C61.4601 29.5564 61.5576 30.0092 61.7805 30.4271C61.8014 30.6013 61.8501 30.7684 61.9685 30.9287L62.0103 30.9565C62.0939 31.1167 62.1497 31.0819 62.2611 31.1307C62.289 31.1585 62.3935 31.3118 62.491 31.3327C62.6164 31.4232 62.7348 31.4929 62.8532 31.5417L62.8811 31.5556L62.9577 31.5904C64.7131 32.2522 66.8447 28.2955 67.0537 28.2329C67.1094 28.1005 67.1233 28.0099 67.1791 27.9194C68.5165 25.7669 71.2472 22.1864 71.7766 22.4511L71.7696 22.486V22.5417L71.7975 22.5905V22.5974C71.7975 22.6323 71.7835 22.7158 71.7626 22.7785C71.7557 22.8134 71.7417 22.8552 71.7348 22.897C71.7208 22.9666 71.7208 23.0293 71.7208 23.099L71.7975 23.1268C71.7905 23.1756 71.8323 23.2453 71.8253 23.2592C71.7696 23.6353 71.7208 24.0185 71.6721 24.3528L71.6651 24.3877V24.4016L71.6581 24.4086L71.6651 24.4225L71.6512 24.4434L71.6651 24.4643L71.6581 24.4782L71.6651 24.4922L71.6581 24.4991L71.6512 24.5131V24.534L71.6651 24.5549V24.5757L71.6581 24.5966L71.6721 24.6106L71.6442 24.6175L71.6512 24.6524L71.6581 24.6733L71.5746 25.3908L71.5955 25.3977C71.6024 25.5579 71.491 30.0022 74.2843 30.8799C75.0784 31.1307 75.6357 31.1446 76.3183 30.9983C77.0289 30.866 79.1395 29.8281 80.4491 27.6895C80.3098 29.0618 80.7905 30.4132 81.6333 31.0122C81.6333 31.0122 81.9189 31.2421 82.0861 31.3048C82.2603 31.3745 82.4275 31.4511 82.4275 31.4511C83.5699 32.0432 86.6767 31.1934 88.7316 27.9612C88.7177 28.1144 88.7107 28.2468 88.7246 28.2886V28.3304L88.7316 28.3234C88.7386 28.3652 88.7455 28.4 88.7525 28.4418C88.7525 28.4767 88.8013 28.5115 88.8082 28.5394L88.8222 28.5881L88.8361 28.616C88.8779 28.7623 88.9406 28.9016 89.0172 29.0339V29.0409L89.0242 29.1106L89.066 29.1454C89.0312 29.2568 89.0938 29.2081 89.1565 29.2847C89.268 29.4937 89.4212 29.6469 89.5675 29.7793C90.2014 30.3575 94.158 32.6144 99.2362 24.4782C99.0272 25.4326 98.8113 26.4565 98.6093 27.39C98.5048 27.8846 98.456 28.4349 98.3933 29.0061C98.3376 29.6051 98.2749 30.2599 98.4142 30.9774C98.4839 31.3257 98.6093 31.7297 98.9367 32.0432L99.0203 32.0989C99.083 32.1825 99.1457 32.2661 99.2223 32.3288C99.2571 32.3636 99.3059 32.3985 99.3546 32.4194L99.3616 32.4263C99.3964 32.4472 99.4313 32.4612 99.4731 32.4821C99.5497 32.5169 101.082 32.8861 100.811 32.1477C100.434 31.1516 101.5 25.9829 102.106 24.2623C102.378 23.4821 102.371 23.496 102.552 22.6114L102.594 22.3606C102.622 22.061 102.747 21.9287 102.872 21.6152V21.4202C103.66 19.5255 104.182 17.4635 104.927 15.5061C105.471 13.9318 105.861 12.6919 106.383 10.7414C107.665 10.6161 109.727 10.6857 111.009 10.4976C112.813 10.2329 116.47 10.3304 118.567 10.226V10.2469C119.242 10.1772 120.231 10.2469 121.06 10.2886L121.75 10.2051C124.007 10.3583 126.278 10.5673 128.563 11.0061C129.705 11.236 130.868 11.4241 131.941 11.8769C132.478 12.1068 132.986 12.4133 133.404 12.8173C133.557 12.9705 134.135 13.8064 133.787 14.2383C133.474 14.6284 134.428 14.8095 135.257 14.0642L135.389 13.9179C135.473 13.8204 135.55 13.7089 135.612 13.5557C135.842 13.2561 136.002 12.6989 135.919 12.058L135.891 12.0092C135.877 11.9535 135.87 11.8978 135.849 11.849C135.752 11.5843 135.682 11.3753 135.508 11.1594C135.417 11.0479 135.382 10.9713 135.306 10.8529C135.271 10.8041 135.125 10.6787 135.118 10.6787C135.111 10.6718 135.076 10.6161 135.069 10.5812C135.062 10.5464 135.055 10.5603 135.048 10.5464L135.013 10.5185L134.999 10.4907L134.978 10.4767L134.985 10.421L134.95 10.414L134.923 10.3792L134.888 10.3444L134.853 10.3165L134.588 10.1145C134.526 10.0657 134.463 10.01 134.414 9.96126C134.33 9.85677 134.24 9.84283 134.177 9.79407C133.599 9.44578 133.146 9.22287 132.54 8.97906L132.492 8.98602L132.45 8.96513C132.317 8.95816 131.676 8.74221 131.468 8.67952C131.245 8.6029 131.077 8.59594 130.834 8.56807L130.778 8.5611H130.75H130.729H130.687L130.639 8.54717L130.604 8.55414L130.569 8.54717H130.541L130.513 8.55414C130.478 8.54717 130.492 8.54717 130.457 8.53324H130.416L130.381 8.51931L130.339 8.51235H130.332C130.29 8.49841 130.242 8.49144 130.2 8.48448H130.193L130.186 8.47751C129.831 8.39392 129.622 8.31033 129.252 8.2546L129.245 8.22674L129.224 8.21281L129.211 8.21978C129.127 8.24068 129.12 8.2337 129.12 8.2337L128.904 8.24068C128.507 8.14315 128.033 8.2337 127.636 8.21281C127.441 8.19887 127.295 8.12922 127.1 8.09439L126.8 8.04563L126.654 8.01776C126.64 8.01776 126.584 8.03866 126.543 8.04563L126.473 8.02472C126.278 8.07348 126.111 8.13618 126.09 8.02472C125.985 8.00383 125.79 8.03866 125.762 8.04563H125.7L125.651 8.05956L125.588 8.05259L125.533 8.05956C125.512 8.07349 125.484 8.06652 125.449 8.05956C125.414 8.04562 125.365 8.06653 125.331 8.06653C125.296 8.07349 125.247 8.07349 125.219 8.05956L125.101 8.07349L125.094 8.06653L125.101 8.05956L125.038 7.99686C125.003 7.97597 124.968 7.96204 124.94 7.94811C124.773 7.92024 124.725 7.92721 124.613 7.91328C124.383 7.89238 123.937 7.86452 123.687 7.89238C123.687 7.89238 123.652 7.91327 123.575 7.9272C123.498 7.93417 123.464 7.94114 123.38 7.93417L123.345 7.9272L123.283 7.89238L123.213 7.87844L123.101 7.86451L122.899 7.84361L122.697 7.82272L122.607 7.80182C122.565 7.78092 122.495 7.78788 122.475 7.78788L121.848 7.80182H121.743C121.729 7.80182 121.722 7.82272 121.68 7.82272C121.632 7.82272 121.639 7.82968 121.583 7.82968C121.527 7.82968 121.534 7.84361 121.513 7.82968H121.457L121.409 7.81575L121.374 7.82968L121.339 7.82272H121.311L121.255 7.81575L121.172 7.82272C121.026 7.85058 120.872 7.82968 120.719 7.82968C120.51 7.83664 120.252 7.83665 120.043 7.84361H120.05L119.681 7.83665C119.639 7.83665 119.605 7.82272 119.584 7.82272L119.507 7.82968C119.486 7.82968 119.472 7.80878 119.437 7.80878C119.061 7.78092 118.908 7.86451 118.622 7.83665C118.581 7.83665 118.483 7.87148 118.455 7.87844L118.379 7.85058H118.309L118.232 7.84361C118.211 7.84361 118.232 7.86451 118.184 7.85058C118.142 7.83664 118.149 7.82968 118.135 7.85058L118.058 7.85755L117.995 7.87148L117.919 7.85058C117.891 7.83664 117.905 7.84361 117.856 7.84361C117.807 7.84361 117.786 7.86451 117.786 7.86451L117.71 7.85058L117.661 7.85755L117.612 7.84361L117.536 7.85058C117.522 7.86451 117.536 7.85058 117.487 7.83665C117.438 7.82272 117.445 7.84361 117.382 7.84361C117.264 7.84361 117.153 7.85058 117.034 7.84361C116.762 7.83665 116.533 7.87148 116.219 7.88541C116.031 7.91327 114.004 7.9899 113.816 7.9899V7.97597V7.98293V7.9899C113.482 7.99687 111.148 8.07349 109.448 8.18495C109.204 8.19191 108.968 8.21978 108.738 8.24068C108.501 8.25461 108.369 8.37303 108.132 8.37999C108.006 8.38696 107.902 8.2964 107.762 8.3173L107.588 8.34516L107.122 8.40089L107.066 8.41482L107.031 8.44268H106.982C107.198 7.57891 107.623 6.17876 107.749 4.93883C107.79 4.54177 108.167 1.60912 106.077 1.77631L106.063 1.72754C105.624 1.7345 105.735 1.74844 105.304 1.80416L104.997 1.85293L104.83 1.84596C104.781 1.83899 104.691 1.85292 104.649 1.86686C104.614 1.87382 104.6 1.89472 104.579 1.90169L104.544 1.90865L104.523 1.92955L104.489 1.92258L104.468 1.92955L104.426 1.93652L104.377 1.95045C104.335 1.98528 104.21 1.99225 104.091 2.02708L104.084 2.02011L104.036 2.01314H103.98L103.882 2.02708L103.792 2.041H103.757L103.736 2.05494L103.687 2.04798L103.576 2.06887C103.506 2.09674 103.409 2.11067 103.437 2.18729C103.492 2.36144 103.541 2.43806 103.583 2.54255L103.653 2.6958L103.667 2.75153L103.674 2.84209C103.667 2.93265 103.667 2.93264 103.674 3.0023C103.68 3.07196 103.653 3.11375 103.653 3.12768C103.653 3.14162 103.646 3.16949 103.66 3.21128C103.673 3.26004 103.667 3.31577 103.667 3.31577L103.646 3.39239L103.653 3.55958C103.653 3.55958 103.667 3.73372 103.667 3.81731L103.639 3.86608C103.66 4.15168 103.618 4.19347 103.639 4.47907C103.618 4.54177 103.611 4.91793 103.604 4.95972C103.597 5.00849 103.569 5.10601 103.562 5.15477C103.555 5.20353 103.527 5.25926 103.52 5.29409C103.513 5.32891 103.513 5.39858 103.506 5.41948L103.485 5.48913C103.492 5.51699 103.465 5.74687 103.444 5.79563C103.332 6.11606 103.256 6.93805 103.116 7.7043L103.102 7.73913L103.061 7.87148C103.054 7.96204 102.977 8.02473 103.012 8.11528L102.998 8.15708C102.963 8.2755 102.921 8.49841 102.893 8.65862C102.907 8.71435 102.726 8.69345 102.615 8.72131L102.239 8.77008L101.612 8.84671L101.591 8.81188L99.5706 9.14624L98.5605 9.31342L98.059 9.39701L97.5365 9.43184L97.5156 9.43881H97.5087L97.4947 9.43184L97.4111 9.39005L97.3345 9.34825L97.2927 9.32736L97.2649 9.31342L97.244 9.30646H97.2231C97.2022 9.2786 97.0698 9.2577 97.028 9.2159C96.9932 9.18107 97.0002 9.18108 96.9862 9.16714L96.9444 9.13231C96.9096 9.09748 96.8608 9.09748 96.8399 9.09052C96.7912 9.07659 96.7424 9.05568 96.6936 9.02782C96.4986 8.93029 96.2966 8.84671 96.0876 8.76312L96.0806 8.75615C96.0528 8.72132 96.0528 8.72828 96.0388 8.72131L95.9831 8.68649L95.8786 8.63773L95.6766 8.54717L95.4816 8.45662L95.4049 8.40785L95.398 8.38695C94.9591 8.2546 94.5481 8.07349 94.1441 7.95507L94.172 7.96203L94.1023 7.94114C93.9978 7.91327 93.8934 7.87844 93.7889 7.84361C93.566 7.76699 93.0644 7.61374 92.8415 7.55801C92.7858 7.54408 92.744 7.57891 92.7161 7.57891L92.6673 7.54408L92.6395 7.53015L92.5907 7.54408L92.5211 7.50925C92.4932 7.50229 92.4514 7.50925 92.3957 7.48836C92.2564 7.44656 92.117 7.41869 91.9777 7.38386L91.9708 7.3769L91.9359 7.356L91.8872 7.3351L91.7966 7.30027L91.6294 7.23061L91.302 7.10523L91.2742 7.09129L91.2393 7.07737C90.5497 7.00771 89.8601 6.93108 89.1635 6.86142L89.1008 6.77783L89.059 6.78479C88.857 6.79872 88.6062 6.77086 88.3903 6.78479L88.1465 6.7012C88.1674 6.66637 87.9862 6.66637 87.9862 6.64547L87.8678 6.58278L87.7494 6.58975L87.3802 6.56885C87.415 6.54795 86.8787 6.52009 86.9344 6.4992C86.0637 6.50616 85.5134 6.39471 84.6705 6.40167L84.573 6.42953C84.5242 6.42257 84.4754 6.42257 84.4267 6.40167C84.2874 6.38078 84.155 6.36684 84.0296 6.35987L83.9251 6.35291L83.8833 6.36684L83.8485 6.33897L83.7928 6.33201H83.6952H83.6465C83.4306 6.33201 83.2216 6.34594 83.0195 6.36684C82.922 6.35291 82.8315 6.33898 82.7549 6.38774C82.6713 6.3947 82.5946 6.40167 82.511 6.40864C82.4832 6.40864 82.4344 6.40167 82.3856 6.40864C82.3369 6.4156 82.3369 6.40864 82.316 6.40167C82.2951 6.39471 82.2812 6.41561 82.2463 6.40167L82.1767 6.38078L82.1697 6.38774L82.1558 6.38078L82.107 6.36684L82.0234 6.35987L81.8632 6.35291L81.5497 6.34595C81.3477 6.34595 81.1248 6.33201 80.9576 6.32505L80.9019 6.31808C80.7417 6.36684 80.477 6.35987 80.268 6.3738C80.0381 6.3947 79.8361 6.35987 79.5784 6.42953L79.4878 6.43649C79.3137 6.46436 79.2371 6.44346 79.0629 6.45739L79.049 6.40864C78.9515 6.4156 78.8609 6.41561 78.7634 6.42257L78.7564 6.40167C78.7216 6.40167 78.645 6.3947 78.631 6.38774H78.5544C78.5405 6.38774 78.4708 6.38078 78.436 6.38078C77.8717 6.38078 77.3632 6.53403 76.8756 6.59672C76.7502 6.61065 76.6318 6.62458 76.5134 6.62458C76.4646 6.63154 76.381 6.61064 76.3183 6.64547L76.1512 6.68727C76.0397 6.71513 75.9213 6.73603 75.8098 6.75693L75.6426 6.79873L75.5591 6.8266L75.5033 6.86142L75.4964 6.86839C75.1481 6.82659 74.751 6.88232 74.4654 6.98681L74.3748 6.96591L74.3261 6.98681L74.2425 6.97287H74.1311C74.1032 6.97984 74.0475 6.97287 73.9778 6.97287C73.8733 6.97287 73.7619 7.0077 73.6713 7.0286L73.4763 7.07737C73.3509 7.1122 73.2325 7.14702 73.1071 7.18185C72.8702 7.25151 72.6403 7.32117 72.4105 7.38386C72.2921 7.40476 72.1876 7.46745 72.097 7.43959C71.902 7.42566 71.8532 7.51622 71.7417 7.54408C71.5397 7.62767 71.3516 7.71127 71.1427 7.73913L71.08 7.80878L71.0242 7.82968C70.9894 7.81575 70.9685 7.84362 70.9198 7.85755L69.5475 8.3382C69.2897 8.43572 69.1434 8.6029 68.9345 8.72829C68.7464 8.82581 68.4887 8.91637 68.2866 9.03479C67.7781 9.32039 67.3323 9.68262 66.9283 10.1006C66.9004 10.1563 66.8517 10.1284 66.8517 10.1911C66.8517 10.2538 66.8308 10.2608 66.8099 10.2817L66.789 10.3026L66.7333 10.3513L66.6705 10.3792C66.6705 10.3931 66.7123 10.3653 66.6705 10.3931C66.6287 10.421 66.58 10.4349 66.58 10.4349L66.5382 10.4558C66.5243 10.4837 66.4964 10.4698 66.4894 10.5116C66.4825 10.5534 66.4616 10.5394 66.4407 10.5394H66.371L66.3222 10.6439C66.0366 10.9852 65.9322 11.0479 65.6814 11.5843C65.5839 11.7863 65.4654 11.9535 65.4585 12.5038C65.4585 12.7894 65.5421 13.0193 65.6257 13.277C65.7232 13.5278 65.8486 13.7786 66.0436 13.9876C66.1411 14.099 66.775 16.551 80.3655 14.6423C84.5381 14.0572 89.0033 13.2143 90.7169 12.866C91.6573 12.671 92.9181 12.455 94.381 12.2182L94.4506 12.2112L94.5064 12.1973C95.391 12.058 96.0667 11.9117 97.0768 11.7654C97.1395 11.7585 97.2022 11.7515 97.2649 11.7445C98.4073 12.7825 98.665 13.6462 99.1178 14.6493L99.1457 14.705L99.1944 14.8235C99.2501 15.0394 99.2919 15.0394 99.3895 15.2553C99.4591 15.4434 99.5358 15.6385 99.5984 15.8266C99.9328 16.8784 100.163 17.9651 100.198 19.0239C98.1495 24.4225 94.5063 28.1353 92.5559 28.1214C91.6225 28.1144 91.5249 27.1392 91.6085 25.7808C91.6155 25.6903 91.6225 25.6067 91.6294 25.5301V25.5022C91.6503 25.3211 91.7339 24.9519 91.7478 24.924L91.72 24.8544L91.7339 24.7638L91.6852 24.8056V24.7987V24.7638C91.6921 24.729 91.7269 24.6872 91.7548 24.6524C91.7896 24.6036 91.7339 24.5827 91.7339 24.5827C91.7339 24.5827 91.7339 24.5131 91.7269 24.4782C91.72 24.4434 91.6991 24.3877 91.6991 24.3877C91.6991 24.3877 91.727 24.325 91.7339 24.2692C91.7409 24.2135 91.6921 24.1996 91.72 24.123C91.7479 24.0463 91.727 24.0394 91.72 23.9976C91.713 23.9558 91.713 23.9279 91.713 23.9279L91.6852 23.8513C91.6643 23.8304 91.6643 23.7886 91.6503 23.7538C91.6434 23.7189 91.6503 23.705 91.6016 23.6911C91.5807 23.6841 91.504 23.6423 91.4274 23.5866C91.3647 23.5309 91.2881 23.4821 91.1975 23.4473C91.107 23.4124 90.8005 23.2662 90.689 23.2383C90.6542 23.2313 90.6124 23.2174 90.5567 23.2104C90.4661 23.1965 90.3686 23.1965 90.2641 23.2104C89.6651 23.1756 89.1217 23.51 89.1008 23.5378L89.0311 23.6284L88.9754 23.7189L88.8918 23.7816C88.8709 23.8025 88.85 23.8025 88.8222 23.8583C88.8013 23.914 88.8013 23.9488 88.7595 23.9976C88.7177 24.0463 88.6968 24.0742 88.6619 24.1299C88.6271 24.1857 88.5435 24.4713 88.5157 24.5409C88.4808 24.6036 88.4321 24.6315 88.4112 24.6663C88.4042 24.6872 88.3972 24.7569 88.3833 24.8195L88.3415 24.9101C88.2928 24.9449 88.237 25.1609 88.2161 25.2236C88.1952 25.2863 88.1534 25.2723 88.1186 25.3281C88.0977 25.3629 88.0838 25.4395 88.0559 25.5022L88.0002 25.5858C87.9375 25.6276 87.826 25.8714 87.7982 25.9271C86.7394 27.996 85.0884 29.1036 84.2316 28.6787C83.4236 28.2746 84.1341 25.7112 84.4476 24.6175C84.6148 24.0324 84.8028 23.7329 84.9979 23.2174L85.0188 23.2313C85.2347 22.5696 85.5551 21.9078 86.001 21.3854C86.5304 20.633 86.7881 20.3056 87.2618 19.8668C87.624 19.616 87.826 19.3583 88.1325 19.1981C88.5435 18.9891 88.9197 18.8985 89.2401 19.2816V19.2886L89.3237 19.3165L89.3376 19.3374L89.3167 19.3583L89.3516 19.3792H89.3585C89.463 19.5464 89.5188 19.7344 89.5815 19.9016C89.5745 19.9782 89.6929 19.8738 89.7068 19.9573L89.6929 19.9852L89.6859 20.0409C89.6859 20.0827 89.6859 20.1106 89.6999 20.1385C89.7068 20.1733 89.6859 20.1872 89.679 20.2012L89.672 20.2569L89.7138 20.2847L89.7068 20.3474L89.7277 20.3753C89.7277 20.3753 89.7208 20.4171 89.7695 20.4728L89.7486 20.5077C89.7068 20.5843 89.7208 20.6609 89.6859 20.7375L89.672 20.7793C89.8044 21.7615 89.5745 21.9008 90.0482 22.068C90.3616 22.1795 91.3229 21.9566 91.8245 20.6121C92.1797 19.6578 92.131 17.366 90.4592 16.5232C90.2432 16.4256 89.9855 16.3629 89.9715 16.349C89.9576 16.3351 89.8322 16.3211 89.7904 16.3072C89.7486 16.2933 89.679 16.2863 89.6372 16.2515C89.5954 16.2167 89.5814 16.3142 89.5536 16.3142L89.477 16.2724C89.463 16.2445 89.4352 16.2724 89.4003 16.2654C89.3655 16.2584 89.3446 16.2654 89.3098 16.2375C89.2749 16.2097 89.261 16.2375 89.2123 16.2515C89.1635 16.2654 89.1565 16.2584 89.1147 16.2097C89.0729 16.1679 89.0172 16.2027 88.9336 16.2097C88.7107 16.1748 88.3903 16.147 88.1813 16.154C88.1325 16.1609 88.0838 16.1818 88.035 16.1958H88.0211L87.8887 16.2584C87.8121 16.342 87.7146 16.2793 87.5962 16.3072C87.3872 16.356 87.0459 16.4256 86.8787 16.558C86.8299 16.5858 86.7951 16.6276 86.7533 16.6625L86.6906 16.6485L86.6488 16.7252L86.5931 16.7182L86.5513 16.753C86.5304 16.76 86.5165 16.7809 86.4747 16.767C86.4329 16.753 86.3911 16.7948 86.3423 16.8227C86.1751 16.8993 85.994 16.969 85.9104 17.1013C85.8547 17.1571 85.7572 17.1501 85.6736 17.2058C85.6109 17.2685 85.5621 17.2824 85.4925 17.3382C85.3671 17.4426 85.2208 17.5332 85.0745 17.6377C84.9422 17.7491 84.6356 17.9372 84.5939 18.1532L84.6147 18.1392L84.6078 18.1601L84.6287 18.1532L84.5381 18.2298L84.5172 18.181L84.5103 18.1601L84.4963 18.1671L84.4476 18.2019C84.1968 18.3552 84.1341 18.5363 83.9391 18.794C83.8694 18.9055 83.7649 18.9821 83.6604 19.0657L83.5908 19.1145L83.5838 19.1284L83.549 19.1563C83.5072 19.219 83.4654 19.2886 83.4236 19.3583L83.4096 19.5464C83.3609 19.623 83.2773 19.5881 83.2216 19.6717C83.1728 19.7135 83.138 19.7484 83.138 19.7693L83.1171 19.832L83.0613 19.8947L83.0544 19.9434L83.0056 19.9573L82.9778 20.027L82.922 20.0618C82.7966 20.236 82.6713 20.5285 82.5459 20.7306C82.4414 20.9047 82.323 21.1833 82.1976 21.3645C82.0792 21.5386 82.0443 21.8939 81.8702 22.0332C81.8353 22.068 81.8214 22.082 81.8284 22.1168C81.8353 22.1586 81.8145 22.1934 81.8145 22.1934C81.8145 22.1934 81.7448 22.1795 81.7518 22.2143C81.7657 22.2491 81.8354 22.2561 81.8075 22.2631C81.6264 22.3188 81.703 22.3466 81.5985 22.5347C81.4801 22.7507 81.4731 22.7646 81.3826 22.9945C80.6442 24.8265 79.3624 26.8188 77.9484 27.9403C77.6976 28.1423 77.5026 28.2259 77.2239 28.3791H77.203L77.1682 28.3861L77.1612 28.3652L77.1473 28.3861L77.0846 28.4209H77.0637L77.0707 28.4349C77.001 28.4836 76.9592 28.4767 76.8965 28.5254L76.6597 28.5672C76.5761 28.5324 76.5343 28.5812 76.5204 28.5812L76.4646 28.5533L76.4089 28.5394L76.3601 28.5115H76.3323L76.2696 28.4906C76.2487 28.4697 76.2556 28.4349 76.2069 28.4279C74.4097 28.3304 75.1202 22.7437 75.2804 19.7414C75.371 17.979 73.1419 17.7074 71.9925 18.7522C71.8253 18.9055 71.5815 18.9891 71.491 19.2259L71.5537 19.1841L71.5467 19.1981L71.4352 19.2816L71.4283 19.2677L71.4143 19.219L71.3725 19.2399C70.9615 19.4628 70.6899 19.8389 70.3834 20.1594C70.3068 20.236 70.2232 20.3126 70.1326 20.3753C70.0838 20.4101 70.049 20.431 69.9863 20.4659L69.8749 20.5982L69.443 21.1137L69.3942 21.1764L69.3524 21.2182L69.3176 21.246L69.2897 21.2739L69.241 21.3018L69.227 21.3436L69.1922 21.3784V21.3993L69.1644 21.4202L69.1504 21.455L69.1086 21.4759C69.0947 21.4898 69.0738 21.462 69.0668 21.5038C69.0599 21.5456 69.0111 21.5665 68.9972 21.5804L68.3563 22.2909C68.1961 22.486 68.0219 22.6532 67.8478 22.8343C67.8478 22.8343 67.7921 22.9039 67.7572 22.9248C67.7224 22.9457 67.6597 23.0641 67.6597 23.0641L67.6318 23.099L67.5831 23.1547L67.5413 23.2035L67.4925 23.2592L67.4786 23.2731C67.4298 23.3219 67.3811 23.3637 67.3184 23.3985H67.3114C67.2836 23.4403 67.2487 23.4821 67.2209 23.5309L67.193 23.503L67.0816 23.6005L67.1303 23.6562L67.1094 23.6841L67.1303 23.712C67.0606 23.7956 66.998 23.8792 66.9283 23.9627L66.7611 24.1648L66.6775 24.2553C66.6497 24.2832 66.58 24.2971 66.6218 24.3737L66.6079 24.3528C66.2317 24.8404 65.8486 25.342 65.5003 25.7948C65.4167 25.8993 65.3401 26.0038 65.2634 26.1013C65.0127 25.7321 67.5413 20.1036 67.7154 18.7731C67.7363 18.7801 67.7503 18.7801 67.7503 18.8149C67.8269 18.4457 67.9871 18.1323 67.9801 17.7561L68.001 17.7631C68.1961 16.558 66.4616 16.0495 64.6644 16.5162L64.6504 16.5649C64.5529 16.5998 64.5042 16.7182 64.4693 16.8018C64.4275 16.8993 64.3927 16.9759 64.3857 17.0108L64.2882 17.1501C64.2673 17.1849 64.2255 17.2128 64.2255 17.2755C64.2255 17.3382 64.2185 17.4078 64.1977 17.4496C64.1768 17.4984 64.1559 17.6168 64.128 17.7213C64.1071 17.8258 64.0862 17.8327 64.0583 17.8815C64.0305 17.9303 64.0444 17.9721 63.9956 18.0556C63.9469 18.1392 63.8981 18.1392 63.8981 18.2159C63.8981 18.2925 63.919 18.2716 63.8911 18.3622C63.8633 18.4527 63.8842 18.5293 63.8842 18.5293L63.8494 18.6129C63.8494 18.6129 63.8424 18.6199 63.8215 18.6756C63.8076 18.7104 63.8006 18.7731 63.7867 18.8428C62.289 21.8869 59.4539 24.7778 56.3471 27.5154C56.5839 26.0734 56.772 24.9449 56.8277 24.6315C57.0158 23.5727 57.183 22.4929 57.0924 21.3366C57.0924 21.0858 56.8974 19.414 55.3997 19.5394C54.9399 16.342 53.0731 16.2306 52.5994 16.2515C52.5506 16.2515 52.4531 16.2793 52.4322 16.2724L52.3556 16.2863C52.3347 16.2863 52.2859 16.3142 52.2441 16.3072C52.2023 16.3072 52.1605 16.3211 52.1118 16.3281L52.0909 16.3351L52.07 16.3281C52.0212 16.3211 51.9794 16.3211 51.9376 16.3281L51.9307 16.3211C51.8889 16.3002 51.8819 16.3072 51.861 16.3072L51.7774 16.3351L51.7287 16.349C51.7078 16.3629 51.7078 16.3908 51.666 16.3838C51.5127 16.3629 51.3386 16.5092 51.2759 16.4814H51.2341C51.053 16.5649 51.0181 16.5858 50.8858 16.6834L50.8301 16.6694H50.7883L50.7465 16.6903H50.6977H50.628C50.5932 16.6903 50.5932 16.7112 50.5653 16.7252L50.4957 16.76L50.426 16.7878L50.3703 16.8157L50.3424 16.8227L50.3355 16.8297L50.3146 16.8366L50.3076 16.8436H50.2798L50.238 16.8784C50.2031 16.9132 50.1962 16.9132 50.1544 16.9411C50.0499 17.0038 49.9941 17.0456 49.8757 17.1361L49.8618 17.1779L49.7852 17.2058C49.7503 17.2267 49.7225 17.2476 49.7085 17.2546L49.6876 17.2615L49.6528 17.2755L49.6041 17.2964L49.5553 17.3242C49.5065 17.3521 49.4717 17.3939 49.4508 17.4496L49.402 17.4914L49.3672 17.5123L49.3533 17.5332L49.3463 17.5471L49.3393 17.5611L49.3185 17.568L49.3115 17.582H49.2906L49.2836 17.5959H49.2767L49.2627 17.6098L49.2488 17.6029L49.2349 17.6098L49.1861 17.6447L49.1095 17.6934C49.0537 17.7282 49.0189 17.7561 48.9632 17.784C48.9075 17.9163 48.8099 17.8606 48.7473 18.0487L48.7263 18.0765C48.7054 18.1183 48.6706 18.1323 48.6358 18.1601H48.601L48.5801 18.1462L48.5522 18.1601C48.3641 18.3343 48.2318 18.606 48.1133 18.6687L48.0855 18.7035C48.0507 18.7801 48.0367 18.8637 47.981 18.9194C47.9392 18.9543 47.8695 19.01 47.8556 19.0309L47.772 19.1214L47.7163 19.1841L47.6675 19.2538L47.5839 19.3165C47.5839 19.3374 47.4864 19.3652 47.4516 19.421C47.4237 19.4697 47.4028 19.5115 47.375 19.5533C47.3471 19.5951 47.3123 19.6926 47.2496 19.6857H47.2356L47.2287 19.7066C47.2078 19.7693 47.2078 19.7484 47.1799 19.7832L47.1381 19.825L47.1242 19.8807L47.1381 19.8877H47.1451C47.0476 19.9922 46.9709 20.1036 46.8734 20.1872C46.7898 20.222 46.7968 20.3474 46.7829 20.4101C46.7968 20.4798 46.6993 20.4937 46.6575 20.5634C46.5251 20.6957 46.4764 20.8908 46.4137 21.058C46.4137 21.058 46.4206 21.0789 46.3579 21.1137C46.3022 21.1485 46.3579 21.1415 46.351 21.1624L46.3161 21.1903C46.2952 21.2112 46.3231 21.246 46.2813 21.2321C46.2395 21.2182 46.2465 21.246 46.2116 21.2948C46.142 21.3993 46.0584 21.448 46.0654 21.5804L46.0096 21.6431C45.9818 21.6431 45.9261 21.664 45.9052 21.6988L45.8982 21.7058V21.7128C45.8703 21.873 45.7658 22.0053 45.6822 22.1377C45.6265 22.2561 45.5081 22.3467 45.5081 22.5069L45.4802 22.5556L45.4454 22.5974C45.2364 22.9039 45.2155 23.1059 45.1041 23.3428C45.0762 23.3985 45.0414 23.4542 44.9926 23.496C44.916 23.5309 44.923 23.6284 44.9021 23.6841C44.8812 23.7468 44.8533 23.7816 44.8533 23.8304C44.8533 23.8792 44.8394 23.921 44.8185 23.9558C44.8045 23.9906 44.8185 23.9836 44.8115 24.0185L44.7767 24.0812L44.7558 24.116L44.7279 24.1787C44.7279 24.1787 44.7418 24.1856 44.714 24.2205C44.6931 24.2553 44.6722 24.2623 44.6374 24.3459C44.4562 24.7917 44.2403 25.2375 44.0662 25.6415H44.0592C44.0452 25.6764 44.0383 25.7112 44.0313 25.746L43.9965 25.7948L44.0035 25.8017C41.2519 30.2112 39.8866 30.3017 39.4338 30.3017C38.0964 30.3157 38.2705 28.8876 38.2566 28.4558C38.2775 28.4627 38.2914 28.3234 38.2984 28.3722C38.3193 27.8846 38.4656 27.6616 38.5352 27.2089L38.584 27.0487C38.6397 26.4705 38.8278 25.9271 39.0298 25.3977C39.1273 25.1261 39.2318 24.8822 39.3224 24.5966C39.392 24.318 39.5731 23.9976 39.6149 23.7189C39.8378 23.1129 40.005 22.5556 40.3115 21.9357C40.6041 21.3157 40.9872 20.7166 41.0917 19.9991C41.2032 19.2468 40.7852 18.599 40.5553 18.383C40.423 18.2577 40.2558 18.1462 40.1234 18.0696H40.1095H40.1025H40.0956C40.0189 17.9999 39.9423 17.9999 39.9354 17.9999L39.9145 17.9721L39.8866 17.9581L39.8518 17.9372L39.8309 17.9094L39.7821 17.8885C39.7821 17.8815 39.7264 17.8536 39.6916 17.8327C39.6498 17.8118 39.6219 17.8118 39.6149 17.8118L39.5592 17.784L39.5244 17.7561L39.4826 17.7283L39.406 17.6795L39.3572 17.6516H39.3363L39.2875 17.6377H39.2666V17.6447C39.19 17.6377 39.1204 17.6098 39.0368 17.5959C38.988 17.5889 38.981 17.575 38.9253 17.5889H38.8765C38.8208 17.5889 38.786 17.5611 38.7303 17.5471L38.7233 17.5123H38.7163V17.4984L38.6885 17.4844H38.6606L38.6397 17.4914L38.5909 17.4844L38.584 17.4914H38.577H38.5631V17.4984L38.5422 17.4914L38.5282 17.4775H38.5073H38.4934L38.4586 17.4705H38.4168C38.382 17.4775 38.4029 17.4775 38.3611 17.4705C37.1769 17.366 37.1211 17.7422 37.5043 18.2228C37.546 18.2716 37.5182 18.2646 37.5461 18.2786H37.5391L37.56 18.2994L37.5809 18.383L37.5391 18.4318L37.5321 18.4457L37.5391 18.4597C37.5809 18.5572 37.6296 18.6617 37.5809 18.7174L37.6087 18.7383V18.7662H37.6227C37.6018 18.9194 37.5809 19.0727 37.5252 19.205C37.4555 19.2677 37.5182 19.3931 37.5112 19.4628C37.5321 19.5324 37.4416 19.5812 37.4137 19.6578C37.3162 19.825 37.1629 20.647 36.9679 21.0092L36.9748 21.0231V21.0371C36.9748 21.1207 36.8843 21.1067 36.8355 21.1903V21.1973C36.8286 21.3714 36.745 21.5316 36.6753 21.6849C36.6335 21.8103 36.4872 22.068 36.4872 22.2213C36.3061 22.4581 36.3131 22.7925 36.2295 23.0572C36.0693 23.2592 35.9439 23.9279 35.8812 24.1857C35.7558 24.6872 35.5747 25.1748 35.4354 25.6415L35.4284 25.6485L35.4145 25.7391H35.4075L35.3936 25.7669L35.4075 25.8435V25.8784L35.4354 25.8993C35.4006 26.0595 35.3797 26.2267 35.31 26.3521L35.303 26.359L35.3239 26.4147C35.1149 27.6616 34.8433 28.6787 35.3727 30.0161C35.4284 30.1554 35.505 30.2808 35.5817 30.4062C35.6095 30.4619 35.6304 30.5316 35.6583 30.5873C35.7628 30.7893 35.8951 30.9774 36.0414 31.1446C36.2295 31.4581 36.3688 31.6879 36.7101 31.8551L36.8495 31.9178C36.9888 32.1198 37.2117 32.0571 37.3719 32.0989L37.4625 32.1338L37.4346 32.1268C37.5948 32.1756 38.0128 32.2243 38.1869 32.2522C38.2217 32.2661 38.2635 32.2731 38.3123 32.2731C38.3541 32.2801 38.4307 32.2452 38.4656 32.2522H38.4795C39.4477 32.301 40.6877 31.883 41.7744 31.0889C41.8022 31.068 41.8022 31.068 41.8092 31.0262L41.8579 30.9844L41.8858 30.9356C42.2132 30.7476 42.8471 30.0719 43.3487 29.4867C43.3626 30.3784 43.5785 30.852 43.6134 30.9356C43.6343 30.9774 43.6134 31.0123 43.6343 31.0541L43.69 31.1028C43.7527 31.4093 43.8363 31.5626 44.0801 31.8273L44.1846 31.9387C44.296 32.078 44.3866 32.1338 44.512 32.1477C44.5538 32.1547 44.5956 32.1616 44.6374 32.1756C44.6583 32.1825 44.8254 32.3009 44.9648 32.3079C45.111 32.3567 45.2573 32.3915 45.4245 32.4124L45.5081 32.4263C45.5499 32.4333 45.933 32.4472 45.9748 32.4542C46.7829 32.5239 47.7024 32.0362 48.6428 31.3815L48.9423 31.1655C49.1722 30.9914 49.409 30.8102 49.6389 30.6152L49.6458 30.6082L49.6528 30.6013L49.6667 30.5873C50.1056 30.2181 52.7457 27.6059 53.7139 26.373C53.5328 27.7383 53.3238 29.0409 53.08 30.2808C46.9222 35.3869 41.1056 39.9008 43.3974 43.7599C43.4114 43.8086 43.4392 43.8574 43.4601 43.9062C43.5019 44.0176 43.6412 43.9758 43.6343 44.0873L43.5994 44.0385C43.6273 44.2127 43.8154 44.2266 43.9338 44.2963L43.9408 44.3032C44.094 44.547 44.1776 44.5331 44.5259 44.7281L44.6025 44.763C44.6722 44.7978 45.125 44.9162 45.2016 44.9302C48.8378 45.6337 54.0762 40.3605 55.9082 30.1833C58.4299 28.003 60.9237 25.7042 62.8045 23.3776C62.5746 24.123 62.3099 24.8892 62.0243 25.76ZM81.9816 12.2809C81.8284 12.3018 81.8145 12.2739 81.6612 12.2809L81.5985 12.2948C81.6403 12.3297 81.5567 12.3436 81.5846 12.3575C81.494 12.3645 81.4035 12.3645 81.3129 12.3784C81.2224 12.3924 81.1179 12.4551 81.09 12.4481C81.0621 12.4342 80.9994 12.4341 80.9367 12.4341C80.8741 12.4341 80.888 12.476 80.8462 12.476C80.8044 12.476 80.7278 12.4899 80.7278 12.4899C80.7278 12.4899 80.686 12.5456 80.6233 12.5108L80.6163 12.455V12.4341L80.5954 12.4411C80.4073 12.4829 80.2262 12.5386 80.0242 12.5247L80.0172 12.5108L80.0242 12.4969L80.0451 12.469L80.0103 12.476H79.9963L79.9754 12.4481L79.9476 12.4829C79.8849 12.469 79.8988 12.5386 79.857 12.5595C79.8152 12.5804 79.7734 12.6013 79.6689 12.6083C79.5645 12.6153 79.1953 12.6989 79.1674 12.7128L79.1187 12.7546C79.1187 12.7546 79.0699 12.664 79.0281 12.6501C78.9863 12.6362 78.9724 12.6919 78.9306 12.7058C78.8888 12.7198 78.8818 12.7825 78.8609 12.7546C78.847 12.7267 78.7634 12.7546 78.7285 12.7615C78.6937 12.7685 78.6868 12.7755 78.638 12.7546L78.5544 12.7476L78.4569 12.7824C78.429 12.7964 78.3454 12.7894 78.2967 12.7894C78.2479 12.7894 78.1783 12.8382 78.1156 12.8173L78.0529 12.7894H77.9832H77.9066L77.8787 12.7546L77.8578 12.7615L77.83 12.7267L77.8091 12.7615V12.7755L77.607 12.8521C77.5304 12.88 77.4608 12.9009 77.412 12.9218C77.3563 12.9427 77.3423 12.8591 77.3214 12.873L77.2448 12.9078L77.1473 12.8939C77.1194 12.9009 77.0707 12.9427 77.001 12.9357C76.9383 12.9218 76.8687 12.9775 76.8338 12.9775C76.799 12.9775 76.6806 12.9427 76.5552 12.8869L76.5134 12.88C76.388 12.9078 76.2557 12.9496 76.1094 12.9984L76.0885 12.9845C76.0327 13.0054 75.97 13.0263 75.9074 13.0472L75.8865 13.0402L75.8795 13.0054L75.8725 12.9705L75.8516 12.9914L75.8168 13.0123L75.7959 13.0054L75.8029 13.0193C75.6914 13.0332 75.2804 13.082 75.2456 13.0611C75.2108 13.0472 75.2456 13.0611 75.2317 13.075L75.1829 13.0263L75.1133 13.0472C75.0924 13.075 75.0575 13.0402 74.9948 13.0402C74.9252 13.0402 74.8834 13.0402 74.765 13.0541C74.6465 13.068 74.6187 13.0541 74.5838 13.0402C74.542 13.0263 74.5211 13.0332 74.4933 13.0472C74.4654 13.0611 74.4236 13.0541 74.3958 13.0193C74.3679 12.9845 74.3261 13.0193 74.1937 13.0054C74.1311 12.9984 74.0405 12.9775 73.9778 13.0193C73.8106 13.089 73.7897 13.1238 73.6504 13.1307C73.6225 13.1098 73.4066 13.1168 73.3509 13.1307C73.2951 13.1447 73.2742 13.1238 73.2533 13.1168C73.2324 13.1029 73.2115 13.1168 73.1349 13.1168C73.0653 13.1168 73.0653 13.1168 72.9886 13.1098C72.912 13.1029 72.9399 13.1098 72.8911 13.1238C72.8424 13.1377 72.8075 13.1307 72.7797 13.1238C72.7518 13.1168 72.717 13.1516 72.6821 13.1656C72.6473 13.1795 72.6194 13.1516 72.6055 13.1168C72.5916 13.082 72.5637 13.1238 72.5359 13.1307C72.515 13.1377 72.4592 13.1307 72.4035 13.0889C72.3478 13.0472 72.3617 13.089 72.306 13.0959C72.2433 13.1029 72.2015 13.1099 72.1597 13.0959C72.1179 13.082 72.097 13.1029 72.0622 13.1098C72.0273 13.1168 71.9925 13.1238 71.9716 13.075C71.9507 13.0332 71.9019 13.0611 71.8323 13.0472C71.7696 13.0332 71.7487 13.0054 71.6512 12.9984L71.6372 13.0054C71.5885 13.0193 71.5328 13.0193 71.484 13.0263C71.4492 13.0402 71.3517 13.0263 71.3656 13.0959L71.282 13.0472L71.2681 13.0402C71.2054 13.0123 71.1427 12.9984 71.073 12.9914C69.9794 13.0959 69.0111 12.7825 69.3455 11.9396C69.3803 11.856 69.3942 11.8769 69.443 11.7863C69.4708 11.7515 69.4918 11.7097 69.5196 11.6749C69.7565 11.3196 69.9863 11.1385 70.4182 10.8668C70.6968 10.6857 71.1287 10.4071 71.5606 10.212C72.6125 9.75925 73.1767 9.45274 75.0018 9.07658C76.1163 8.84671 78.2479 8.47054 80.7626 8.2755C81.1179 8.31033 81.4801 8.35909 81.8284 8.32426L81.8841 8.30337C82.107 8.35909 82.1488 8.2337 82.3021 8.19191C82.3369 8.19191 82.3787 8.19191 82.4135 8.18495C82.4553 8.19191 82.4902 8.2128 82.5319 8.2546L82.5528 8.28943C82.6434 8.28247 82.6504 8.24763 82.7061 8.17797C82.9011 8.17101 83.0892 8.17102 83.2843 8.16405C88.446 8.25461 90.9259 8.67952 93.6147 9.36915V9.39005C93.8516 9.39701 94.1859 9.57813 94.4576 9.69655L94.994 9.97518C95.0427 9.99608 95.0706 10.01 95.1054 10.0309C92.528 10.3026 87.7355 11.4589 81.9816 12.2809ZM99.1108 11.3962C99.8004 11.3126 102.266 10.8877 102.58 10.8459C102.399 11.8769 101.556 15.2623 101.256 16.342C100.908 14.3219 99.9676 12.2252 99.1108 11.3962ZM52.2441 33.9101C50.851 37.5602 47.9671 42.8613 45.8007 42.5408L45.7728 42.5339C45.6892 42.513 45.6056 42.4851 45.529 42.4573V42.4782C45.1598 42.3458 45.1807 42.1159 45.1459 42.0184L45.1319 42.0114L45.111 41.9487L45.0553 41.9766L45.0274 41.9278L45.0205 41.893L45.0065 41.8582L44.9926 41.8442C44.909 39.7057 48.3293 36.6825 52.4392 33.2065C52.3695 33.4434 52.3068 33.6802 52.2441 33.9101ZM53.7766 23.1686C49.3602 29.2708 47.4655 29.6191 47.1312 29.4937C46.7968 29.3683 46.7132 28.8459 46.7132 28.5812V28.5254L46.7271 28.4558L46.6993 28.4C46.6923 28.2886 46.7062 28.1841 46.7271 28.0866H46.7341V28.0726C46.8177 27.592 47.0963 27.188 47.2287 26.7143C47.4377 26.3381 47.5003 25.8505 47.6536 25.4186C47.6884 25.342 47.7302 25.2584 47.7651 25.1818C47.8068 25.1052 47.8347 25.0146 47.8904 24.9449C48.0576 24.8335 48.1064 24.6036 48.1621 24.3807C48.2596 24.1926 48.3572 24.0045 48.4616 23.8165C48.9353 22.9597 49.1722 22.8621 49.3672 22.2561C49.9524 21.3227 50.5305 20.5146 51.0112 20.027C51.1644 19.9504 51.1992 19.9364 51.3107 19.825L51.4013 19.7553C51.5266 19.7553 51.4848 19.6787 51.5475 19.6439L51.5824 19.616C51.6033 19.6021 51.659 19.5533 51.7008 19.5951L51.7287 19.5742C51.7635 19.5672 51.7426 19.5533 51.8053 19.5185C51.9585 19.4279 52.1954 19.414 52.3277 19.421C52.69 19.4349 52.9686 19.5882 53.2263 19.8111L53.2472 19.818L53.2542 19.8459L53.2472 19.8598L53.2751 19.8877L53.303 19.9155L53.3239 19.9573L53.3587 19.9713L53.3447 20.0061V20.027L53.3587 20.0409C53.6234 20.4032 53.7557 21.2809 53.7557 21.2878V21.3157L53.7627 21.3296L53.7488 21.3436L53.7557 21.3575L53.7488 21.3993L53.7557 21.4759C53.7627 21.7128 53.8672 22.4024 53.7766 23.1686Z" fill="#01432B"/>
<path id="Vector_4" d="M40.3747 12.051C40.326 12.058 40.3747 12.0928 40.333 12.1416C40.2494 12.1068 40.319 12.1834 40.2285 12.1903C40.2354 12.3715 40.2076 12.2391 40.2354 12.3366L40.1727 12.3784C40.0961 12.3854 40.1449 12.5944 40.1031 12.6013C40.0404 12.8382 39.9359 12.9984 39.9568 13.3885C40.0125 13.4094 39.8593 13.493 39.8871 13.5208C39.8941 13.5557 39.8384 13.7159 39.8453 13.7507L39.8732 13.7437C39.9011 13.9458 39.6085 14.6006 39.8175 14.7817L39.9916 14.9767C40.0613 15.0742 40.1518 15.1927 40.2842 15.2971C40.5419 15.4922 40.9459 15.6245 41.6216 15.4643C41.8446 15.4086 42.1093 15.0533 42.2764 14.9628C42.3182 15.0255 42.4645 14.719 42.5551 14.712C42.5899 14.6284 42.5203 14.6702 42.5411 14.5588C42.5829 14.5588 42.6247 14.5588 42.6735 14.5727L42.6874 14.5518L42.7223 14.5727V14.517C42.7641 14.4752 42.8128 14.4403 42.8685 14.4125C42.8755 14.3637 42.8964 14.3219 42.9173 14.2871C43.0636 14.2592 43.0148 14.2383 43.2029 14.1756C43.1054 14.0084 43.2795 14.0433 43.3562 13.9527C43.3213 13.9318 43.4328 13.8761 43.4397 13.8413C44.5055 12.7685 44.3035 12.0162 43.8229 11.5356L43.7671 11.4729H43.7532C43.391 11.1385 42.8825 10.9574 42.6874 10.832C42.562 10.7484 42.4227 10.7902 42.3879 10.7693L42.3252 10.7345H42.2625L42.2068 10.6996L42.1929 10.63L42.1511 10.6439L42.1093 10.6369H42.0605L41.9839 10.6021L41.9351 10.623C41.9072 10.637 41.8863 10.6091 41.8515 10.5812C41.8167 10.5603 41.7749 10.5952 41.747 10.6091L41.6356 10.6021H41.5311C41.5032 10.6091 41.4127 10.6578 41.3778 10.6369C41.343 10.616 41.2942 10.6787 41.2316 10.6996C41.1689 10.7136 41.141 10.7205 41.1131 10.7623C40.9947 10.9504 40.9599 10.9086 40.8624 10.9713C40.8136 11.0061 40.7718 11.0131 40.7648 11.041L40.7509 11.1037L40.7161 11.1455L40.7091 11.1873L40.6952 11.2639L40.7161 11.3266C40.4444 11.3962 40.4723 11.7306 40.3539 11.9117C40.4026 11.9535 40.3678 12.0092 40.3747 12.051Z" fill="#01432B"/>
<path id="Vector_5" d="M30.1694 12.4829C29.7375 12.7198 29.7723 12.6153 29.5912 12.7685C29.431 12.8591 29.2708 12.9496 29.1175 13.0332C28.6438 13.2979 25.1539 14.8304 23.8861 14.3568C23.1408 14.0781 23.1408 13.4581 22.9039 14.099C22.8552 14.2174 22.8203 14.4055 22.7925 14.5797C22.486 16.6137 23.9836 17.7143 25.0494 17.9581C25.6973 18.1044 26.5332 17.9651 27.1392 17.8049C27.7452 17.6516 28.2955 17.4566 28.8319 17.171C29.8977 16.5789 30.9356 15.9728 31.9457 15.3459C32.9557 14.712 33.9101 14.0224 34.8087 13.3119C36.1392 12.3018 37.4836 11.1873 38.6817 9.85677C39.2808 9.19501 39.845 8.47055 40.2769 7.63464C40.3326 7.52318 40.3814 7.41174 40.4371 7.29332C40.4511 7.26545 40.472 7.22365 40.4859 7.18882C40.8063 6.4783 41.0571 5.70508 41.0501 4.86917L41.0432 4.79952C41.0432 4.74379 41.0501 4.68806 41.0501 4.6393L41.071 4.5975L41.078 4.54177L41.085 4.45122C41.085 4.39549 41.085 4.33977 41.078 4.27707C41.071 4.16562 41.0571 4.0472 41.0362 3.92878C41.0153 3.81036 40.9874 3.69193 40.9526 3.57351L40.9317 3.46206L40.9387 3.39936L40.876 3.26004L40.8272 3.16252C40.7994 3.09983 40.7645 3.03713 40.7227 2.97444C40.6531 2.84905 40.5695 2.7376 40.4859 2.61918C40.3118 2.39627 40.1097 2.18033 39.8938 1.99921C39.6778 1.81113 39.6152 1.60216 39.3713 1.45587C39.1624 1.29566 38.6817 1.11454 38.4936 0.912533C38.4031 0.815011 38.222 0.815006 38.1802 0.766244C38.1384 0.717483 37.9991 0.717483 37.9433 0.668722C37.8876 0.612995 37.7622 0.61996 37.7413 0.592097C37.7204 0.564233 37.6577 0.543338 37.5532 0.529406C37.4488 0.515474 37.4 0.508507 37.3791 0.473677C37.3582 0.445814 37.1841 0.410985 37.0796 0.355258C36.9751 0.292565 36.8149 0.348291 36.7382 0.299529C36.6616 0.250768 36.4735 0.306494 36.376 0.243801V0.236839C36.3481 0.195043 36.2854 0.181107 36.2576 0.167175C36.181 0.146277 36.1043 0.118413 36.0277 0.0905497C35.8745 0.0487542 35.7142 0.132345 35.554 0.0905497L35.3172 0.027859C35.2057 -4.6762e-06 35.15 0.013928 35.0594 0.00696209C34.8992 0.00696209 34.739 0 34.5858 0C33.9658 0 33.7986 0.0139293 33.4503 0.0626907L33.3458 0.0696528H33.304L33.2762 0.0766255L33.2553 0.0835876H33.1717C32.6841 0.125383 32.6353 0.146283 32.3079 0.195045L32.078 0.167175H31.9457C31.7855 0.215937 31.6113 0.257734 31.4511 0.299529L31.2073 0.36222L31.0819 0.397052L31.0192 0.417949L30.9844 0.431883L30.9565 0.445818L30.9496 0.45278C30.7545 0.48761 30.8381 0.473676 30.6082 0.515471L30.3226 0.508509L30.2669 0.438846L29.9952 0.45278C29.7932 0.508508 29.7654 0.515471 29.4797 0.592097L29.4449 0.599069C29.3126 0.592103 29.2708 0.619962 29.1802 0.626928L29.1106 0.633901C29.0827 0.606037 29.0409 0.640859 29.0061 0.647825C28.7762 0.710518 27.9542 0.926462 27.7174 0.996121C27.2994 1.10061 26.9302 1.19814 26.6864 1.28173C26.6655 1.28869 26.3869 1.33745 26.3451 1.34442C25.955 1.45587 25.7808 1.54643 25.4256 1.66485L25.3141 1.72754C25.2166 1.75541 25.1748 1.78327 25.0703 1.79024C24.6593 1.88776 24.2832 2.02708 23.907 2.13853C23.1826 2.452 22.5905 2.81423 21.9984 3.065C21.9496 3.05107 21.9635 3.065 21.9357 3.065L21.866 3.07893L21.7615 3.11377L21.5665 3.19039C21.4411 3.24612 21.3157 3.29488 21.1973 3.3506C20.9604 3.45509 20.7375 3.55261 20.5216 3.65013L20.3614 3.71283C20.3056 3.74766 20.2778 3.71283 20.1663 3.79642C20.0967 3.85215 19.9991 3.91485 19.9086 3.96361C19.7205 4.0681 19.5324 4.17258 19.3583 4.2701C19.0727 4.43728 18.7801 4.56964 18.4457 4.80648C18.2716 4.904 18.0974 5.00849 17.9233 5.11298L17.8049 5.14084L17.6934 5.16175L17.3173 5.37769L17.2267 5.40555C17.0804 5.48914 17.0317 5.5379 16.8993 5.62149L16.8366 5.63542C15.9519 6.14394 15.2484 6.70817 14.6214 7.12613C14.503 7.20275 14.3776 7.27939 14.2453 7.34904C14.092 7.45353 13.9945 7.54409 13.8482 7.64857C13.7159 7.75306 13.5766 7.85756 13.4303 7.96901C13.3606 8.02474 13.284 8.08743 13.2143 8.15012C13.1795 8.18495 13.1447 8.21281 13.1029 8.26854C13.068 8.32427 13.082 8.31731 13.0889 8.31731L13.0472 8.3591L12.9636 8.37302C12.9078 8.39392 12.8451 8.42179 12.7824 8.45662C12.664 8.51932 12.5526 8.59594 12.4411 8.67256C12.3366 8.74919 12.2252 8.83278 12.1207 8.91638C11.9883 9.0139 11.9256 9.10445 11.8142 9.19501C11.64 9.34129 11.5146 9.41095 11.3196 9.55724L11.1872 9.64083C11.0549 9.74531 10.9504 9.78711 10.825 9.89856C10.3304 10.3444 9.85676 10.8599 9.37611 11.3823C9.25073 11.5147 9.10444 11.6888 8.99298 11.7933C8.94422 11.8351 8.81187 11.8769 8.74917 11.9814L8.57503 12.2182C8.34515 12.5317 8.12224 12.8382 7.87147 13.089L7.80878 13.2283L7.79485 13.284C7.44655 13.7229 7.14702 14.1687 6.90321 14.6006C6.76389 14.8513 6.16482 16.0843 6.12999 16.9411C5.98371 20.3753 8.8258 22.1795 12.5386 23.6075C12.6083 23.6423 12.7546 23.6562 12.8242 23.6911C12.8939 23.7259 12.9427 23.7538 12.9984 23.7747C13.0541 23.7956 13.1725 23.8792 13.2561 23.914C13.3397 23.9488 13.4651 23.9349 13.5975 23.9906C13.7368 24.0463 13.9249 24.123 14.0154 24.1439C14.106 24.1648 14.308 24.2902 14.3846 24.3041C14.4682 24.318 14.8026 24.3946 14.9071 24.4364C15.0115 24.4713 15.4225 24.5827 15.4991 24.6036C15.5827 24.6245 15.8474 24.6942 15.8823 24.7151C15.9101 24.736 16.0286 24.7708 16.0634 24.7778C16.0982 24.7847 16.2027 24.8405 16.2027 24.8405L16.342 24.8753L16.4604 24.9101C16.4604 24.9101 16.4674 24.931 16.5301 24.9449C16.5928 24.9589 16.8993 25.0146 17.0038 25.0494C17.1152 25.0843 17.8049 25.2584 17.8049 25.2584C23.7189 26.8884 29.4867 28.3652 28.609 32.1268C28.1771 33.9728 26.3312 35.8536 22.5417 37.5881C22.4442 37.6299 22.2631 37.7065 22.068 37.804C21.9635 37.8528 21.8799 37.8876 21.7685 37.9085C21.7197 37.9155 21.657 37.9433 21.6083 37.9712L21.5386 38.013L21.5038 38.0339L21.4829 38.0478L21.4759 38.0548C20.7584 38.3474 20.0409 38.5981 19.2886 38.8211C19.1911 38.8489 19.1702 38.9046 19.1702 38.9046C19.1702 38.9046 19.0239 38.8837 18.9682 38.9186C18.9125 38.9534 18.8916 38.9673 18.8428 38.9604C18.794 38.9534 18.7313 38.9743 18.5572 39.0231C17.3242 39.3644 15.9798 39.6639 14.4961 39.8381H14.4055L13.5626 39.9286C13.4372 39.9077 13.3954 39.9565 13.3676 39.9426C13.3397 39.9286 13.3397 39.9217 13.2492 39.9286C11.1315 40.0958 8.96512 40.1237 6.81265 39.6918C5.62148 39.441 4.40941 39.0649 3.35059 38.3474C2.82814 37.9921 2.3266 37.3791 2.08976 36.7591C1.99224 36.5014 1.7763 35.3033 2.27784 34.8226C3.12072 34.0006 1.17722 34.335 0.327382 35.9581C0.153235 36.2855 0.0626797 36.6547 0.0139183 37.0308C-0.0278772 37.4139 0.0208834 37.8389 0.208963 38.1941L0.236822 38.2499C0.313447 38.5006 0.424906 38.7514 0.578156 38.9673C0.849827 39.3853 1.16329 39.845 1.52552 40.1794C1.58125 40.2491 1.63002 40.256 1.65091 40.263L1.67181 40.27L1.74146 40.3396L1.85292 40.4302L1.91561 40.4998L2.00617 40.5625C2.00617 40.5625 2.13156 40.6392 2.18032 40.674C2.75849 41.0571 3.31576 41.4124 3.87303 41.6423C4.02628 41.7049 4.17953 41.7607 4.33278 41.8373C4.43727 41.8861 4.45121 41.8721 4.49997 41.9139C4.54873 41.9487 4.58356 41.9487 4.63232 41.9766C4.68109 42.0045 4.72288 42.0254 4.75771 42.0532C4.7995 42.0811 4.8413 42.109 4.89006 42.1229C4.94579 42.1368 5.0851 42.1856 5.0851 42.1856C6.47829 42.6662 8.00383 42.8125 9.27859 42.9797H9.27162C9.48059 43.0215 10.616 43.1539 10.9225 43.133C14.3289 43.3141 16.8993 42.6802 17.5959 42.5896C17.8467 42.5478 17.8885 42.5269 18.0417 42.4782C18.3482 42.3876 18.3134 42.4573 18.4597 42.4294C20.027 42.0393 21.6431 41.684 23.0223 41.0501C23.4055 40.9944 24.6315 40.4093 25.1957 40.2142C25.5649 40.0122 25.9132 39.7893 26.0595 39.7057C31.7367 36.578 32.8443 33.7011 33.0602 32.287C33.729 27.8706 30.2669 25.9202 26.1082 24.3668C25.9202 24.2623 25.7251 24.1717 25.753 24.1996C25.5301 24.0742 25.3141 24.1021 25.0843 23.9906C25.0076 23.9488 24.924 23.907 24.8474 23.8652C24.6663 23.7886 24.4922 23.8304 24.311 23.7538C23.8722 23.5727 23.4473 23.5309 22.9945 23.3637L22.9805 23.3567L22.9318 23.3288L22.8482 23.2871L22.681 23.2174L22.3536 23.1338L22.0819 23.0781L21.9635 23.0293C21.9148 23.0015 21.8799 22.9806 21.8521 22.9736L21.6779 22.9388C21.5874 22.9248 21.2669 22.8134 21.1764 22.7925C15.5967 21.2112 10.1842 20.2499 10.3374 17.0456C10.3653 16.4674 10.9225 15.7012 11.0619 15.5061C11.3266 15.1091 11.6331 14.7399 11.9465 14.3777C12.5874 13.6671 13.284 13.0123 14.0084 12.3924C15.4713 11.1733 17.0386 10.0797 18.6617 9.09749C20.2847 8.10833 21.9635 7.23062 23.705 6.48527C25.6694 5.62149 27.6477 4.95276 29.633 4.43729C30.6222 4.17955 31.6113 3.95664 32.6074 3.79642C33.5966 3.63621 34.948 3.48295 35.9302 3.49688C36.4387 3.51778 36.9402 3.53869 37.393 3.69194C37.6926 3.78946 37.9085 4.06113 38.0269 4.31887C38.0339 4.40246 38.0687 4.49301 38.0548 4.5975L38.0618 4.68806V4.73683C38.0757 5.76082 37.5045 6.56189 37.4279 6.69425C37.2676 6.96592 36.1531 8.07349 35.77 8.42875C35.2545 8.90244 34.3977 9.60599 34.2096 9.64779C34.0215 9.8289 33.729 10.0657 33.3946 10.3235C33.0742 10.5673 32.2104 11.1873 31.883 11.4102C31.5974 11.6052 31.3396 11.7794 31.1446 11.9117C30.9078 12.051 30.6779 12.1904 30.448 12.3227C30.3435 12.3715 30.0718 12.5665 30.1694 12.4829Z" fill="#01432B"/>
</g>
</svg>
